<svg width="1024" height="878" viewBox="0 0 1024 878" fill="none" xmlns="http://www.w3.org/2000/svg">
<g id="human body muscle" clip-path="url(#clip0_13_4)">
<path id="Vector" d="M758.199 38.2891C768.585 45.6878 773.971 55.3226 776.25 67.875C777.07 73.6144 777.401 79.3748 777.656 85.1641C777.72 88.1313 777.72 88.1313 780 90C780.938 97.0355 778.21 103.404 776 110C775.738 110.821 775.477 111.642 775.207 112.488C770.324 127.676 770.324 127.676 768 130C767.319 134.838 766.962 139.736 769.035 144.258C778.512 156.231 795.154 161.77 809.5 164.438C823.559 167.14 833.695 172.341 841.875 184.312C848.204 194.05 848.303 204.615 848.253 215.817C848.237 228.054 848.554 238.354 854.281 249.402C857.259 255.635 857.983 262.208 859 269C859.189 269.767 859.379 270.534 859.574 271.324C859.978 273.864 860.012 276.095 859.965 278.66C859.673 290.997 859.673 290.997 865.5 301.375C866.408 302.297 867.315 303.218 868.25 304.168C881.767 318.089 887.248 339.335 893.688 357.125C896.422 364.676 899.499 371.962 903.082 379.15C903.717 380.429 904.341 381.714 904.957 383.002C908.757 390.941 912.012 397.657 920 402C922.501 403.373 925.001 404.747 927.5 406.125C928.179 406.498 928.859 406.87 929.559 407.254C934.934 410.261 939.974 413.607 944.938 417.25C945.63 417.745 946.322 418.24 947.035 418.75C951.776 422.319 951.776 422.319 952.941 425.859C952.97 426.919 952.97 426.919 953 428C949.467 429.766 945.749 428.874 942 428C938.84 426.558 935.942 424.836 933 423C934.507 428.409 936.208 433.682 938.262 438.91C938.658 439.92 939.054 440.93 939.463 441.971C940.282 444.039 941.11 446.104 941.947 448.166C944.388 454.438 945.483 459.268 945 466C943.68 466.66 942.36 467.32 941 468C941.031 469.949 941.031 469.949 941.062 471.938C941.084 473.292 941.071 474.648 941 476C938.591 478.409 933.451 477.901 930.234 478.133C925.415 477.935 924.228 476.464 921 473C920.01 472.588 919.02 472.175 918 471.75C906.422 464.996 900.34 444.221 897 432C896.392 429.498 895.811 426.99 895.232 424.481C890.882 405.81 880.945 392.201 868.041 378.379C852.025 361.204 835.741 340.998 830.312 317.75C827.994 308.514 824.68 300.139 820.515 291.585C818.023 286.444 816.081 281.444 814.585 275.925C814.169 274.012 814.169 274.012 813 273C812.29 274.779 812.29 274.779 811.566 276.594C810.9 278.23 810.232 279.865 809.562 281.5C809.21 282.377 808.857 283.253 808.494 284.156C806.794 288.254 805.145 292.041 802.465 295.594C795.523 304.97 795.186 314.18 795.25 325.5C795.252 326.242 795.255 326.984 795.257 327.749C795.394 342.898 798.432 357.003 802 371.688C809.822 405.018 811.532 439.204 811.323 473.329C811.309 476.346 811.314 479.362 811.319 482.378C811.357 512.236 811.357 512.236 809 526C808.894 526.647 808.787 527.293 808.678 527.96C806.837 539.046 804.155 549.91 801.404 560.799C798.423 572.639 795.585 584.465 795.75 596.75C795.755 597.505 795.761 598.261 795.766 599.039C795.92 608.384 797.183 617.595 798.578 626.824C799.88 636.167 800.211 645.378 800.25 654.813C800.259 656.028 800.268 657.244 800.278 658.497C800.241 669.193 798.734 679.286 795.812 689.563C795.601 690.319 795.39 691.076 795.172 691.856C793.554 697.476 791.589 702.916 789.5 708.375C783.894 723.206 780.79 738.333 778.188 753.938C777.968 755.229 777.749 756.52 777.523 757.851C774.065 779.583 777.439 798.653 790 817C794.252 822.709 794.252 822.709 799 828C799.041 829.666 799.043 831.334 799 833C793.954 835.452 790.268 836.383 784.562 836.398C783.879 836.401 783.195 836.404 782.49 836.407C781.055 836.409 779.62 836.404 778.185 836.391C776.005 836.375 773.828 836.391 771.648 836.41C770.245 836.408 768.841 836.404 767.438 836.398C766.178 836.395 764.919 836.392 763.621 836.388C759.344 835.93 756.771 835.059 753 833C750.663 829.989 750.818 827.374 751.023 823.656C751.075 822.538 751.127 821.42 751.18 820.268C751.245 819.025 751.309 817.781 751.375 816.5C751.972 802.675 752.151 788.856 752.179 775.019C752.185 772.795 752.194 770.57 752.207 768.345C752.319 748.984 751.232 729.831 748.757 710.624C747.233 698.65 746.701 686.803 746.688 674.75C746.684 674.029 746.681 673.307 746.677 672.564C746.639 658.387 748.35 644.86 751.203 630.957C753.414 620.061 755.257 609.362 755.227 598.211C755.225 597.307 755.223 596.402 755.221 595.471C755.119 586.411 754.162 577.513 753.035 568.532C752.423 563.634 751.856 558.732 751.293 553.828C751.179 552.833 751.064 551.838 750.947 550.813C749.851 541.059 749.142 531.292 748.5 521.5C747.495 506.329 746.067 491.235 744.375 476.125C744.265 475.13 744.154 474.135 744.04 473.11C743.727 470.305 743.408 467.5 743.086 464.695C742.991 463.857 742.897 463.018 742.799 462.154C742.424 458.965 742.019 456.056 741 453C740.34 453 739.68 453 739 453C736.846 470.307 734.844 487.613 733.367 504.992C733.273 506.097 733.273 506.097 733.177 507.224C732.736 512.44 732.304 517.658 731.875 522.875C731.438 528.179 730.996 533.482 730.547 538.785C730.374 540.854 730.206 542.923 730.039 544.992C729.459 551.878 728.673 558.647 727.451 565.45C726.769 569.305 726.3 573.172 725.875 577.063C725.745 578.102 725.745 578.102 725.613 579.162C723.791 595.807 725.499 611.604 728.438 628C731.25 644.108 733.209 659.487 733.188 675.875C733.188 676.601 733.188 677.327 733.188 678.075C733.173 690.153 732.478 702.012 731 714C730.828 715.511 730.659 717.023 730.492 718.535C730.411 719.273 730.329 720.011 730.245 720.771C730.081 722.26 729.918 723.75 729.755 725.239C729.343 728.982 728.909 732.719 728.43 736.453C725.777 758.547 726.226 781.409 727.633 803.594C728.016 809.728 728.217 815.855 728.312 822C728.342 822.952 728.372 823.904 728.402 824.885C728.41 825.768 728.418 826.652 728.426 827.563C728.448 828.74 728.448 828.74 728.47 829.941C728 832 728 832 726.161 833.715C722.073 836.146 718.347 836.175 713.734 836.203C713.023 836.209 712.311 836.215 711.578 836.22C710.072 836.23 708.565 836.236 707.059 836.24C704.772 836.25 702.486 836.281 700.199 836.313C698.732 836.319 697.264 836.324 695.797 836.328C695.121 836.341 694.444 836.353 693.747 836.366C688.746 836.342 685.404 835.163 681 833C680.706 829.979 680.64 828.49 682.469 826C683.139 825.34 683.809 824.68 684.5 824C701.254 806.09 703.761 787.05 703.179 763.667C702.812 756.163 701.411 748.994 699.65 741.708C698.932 738.718 698.27 735.718 697.609 732.715C695.247 722.2 692.537 712.186 688.52 702.191C682.847 687.346 679.788 671.876 679.75 656.063C679.747 655.067 679.747 655.067 679.744 654.051C679.735 641.464 680.088 628.289 683.539 616.096C684.118 613.462 684.13 611.006 684.133 608.309C684.135 606.643 684.135 606.643 684.137 604.943C684.133 603.786 684.129 602.63 684.125 601.438C684.129 600.308 684.133 599.178 684.137 598.014C684.124 586.609 683.054 576.184 680.25 565.125C679.708 562.926 679.167 560.727 678.625 558.527C678.353 557.435 678.081 556.343 677.801 555.218C671.694 530.675 668.821 507.956 668.87 482.66C668.875 479.402 668.87 476.144 668.863 472.887C668.849 434.315 671.106 395.335 682.032 358.15C682.274 357.323 682.516 356.496 682.766 355.645C682.98 354.937 683.194 354.229 683.415 353.499C687.127 337.641 689.057 312.255 680.281 297.969C679.195 296.308 678.097 294.654 677 293C675.761 290.503 674.684 287.953 673.625 285.375C672.933 283.747 672.933 283.747 672.227 282.086C671.035 279.087 669.987 276.072 669 273C667.063 275.906 666.058 278.358 664.875 281.625C663.138 286.274 661.209 290.686 658.994 295.125C655.821 301.506 653.381 307.508 651.938 314.5C646.217 342.081 628.095 363.056 609.852 383.539C596.578 398.542 589.431 414.002 584.23 433.314C581.636 442.812 578.089 451.408 573.062 459.875C572.645 460.607 572.228 461.339 571.799 462.094C568.864 467.083 566.011 470.825 560.438 473C557.842 473.82 557.842 473.82 556.375 476.188C552.835 478.889 549.84 478.031 545.559 477.555C543 477 543 477 540 475C539.626 472.673 539.292 470.339 539 468C538.34 467.34 537.68 466.68 537 466C536.341 457.619 540.022 449.429 542.875 441.75C543.322 440.51 543.77 439.27 544.23 437.992C546.236 432.491 548.305 427.206 551 422C550.059 422.505 549.118 423.011 548.148 423.531C546.891 424.188 545.633 424.844 544.375 425.5C543.758 425.834 543.14 426.168 542.504 426.512C538.509 428.572 535.491 429.58 531 429C530.34 428.34 529.68 427.68 529 427C529.176 424.355 529.682 423.288 531.652 421.5C532.406 421.005 533.161 420.51 533.938 420C534.831 419.404 535.724 418.809 536.645 418.195C537.164 417.857 537.683 417.518 538.217 417.169C540.285 415.813 542.336 414.435 544.387 413.055C550.97 408.634 557.547 404.228 564.312 400.089C577.623 391.505 583.763 369.992 589.117 355.844C589.394 355.112 589.672 354.381 589.957 353.627C591.347 349.951 592.724 346.271 594.081 342.583C596.779 335.32 599.697 328.259 603.156 321.32C603.479 320.673 603.802 320.025 604.134 319.358C607.203 313.355 610.873 308.027 615.125 302.812C620.033 296.822 620.033 296.822 621.492 289.398C621.555 288.277 621.618 287.155 621.683 285.999C621.746 284.803 621.81 283.607 621.875 282.375C624.31 244.69 624.31 244.69 634 235C634.039 232.631 634.017 230.289 633.957 227.922C633.935 226.435 633.913 224.948 633.893 223.461C633.856 221.124 633.813 218.788 633.753 216.452C633.415 202.718 634.689 189.9 644 179C654.978 167.595 667.578 164.73 682.688 161.625C694.114 159.017 706.236 152.901 713 143C714.685 138.71 714.982 133.377 713.211 129.09C712.51 127.787 711.797 126.49 711.074 125.199C709.84 122.673 709.181 120.226 708.5 117.5C707.416 113.201 705.918 109.596 703.852 105.691C701.493 101.007 701.403 95.1486 702 90C702.99 89.01 702.99 89.01 704 88C704.235 85.5609 704.368 83.1942 704.438 80.75C705.158 65.8567 707.894 51.8091 719.363 41.3594C730.071 32.4663 746.198 31.2547 758.199 38.2891Z" fill="#DFE3ED"/>
<path id="Vector_2" d="M287.262 39.2852C296.107 45.3334 301.351 55.365 303.582 65.6953C304.236 70.8683 304.32 76.0652 304.43 81.2754C304.476 82.5061 304.476 82.5061 304.523 83.7617C304.543 84.5038 304.563 85.2459 304.583 86.0105C305.104 88.4946 306.176 89.3016 308 91C308.595 97.507 306.7 103.452 304.105 109.324C302.836 112.396 301.923 115.496 301 118.688C299.911 122.402 298.877 125.497 296.688 128.688C294.358 133.261 294.683 137.096 296 142C298.27 147.268 302.31 149.617 307 152.562C307.77 153.049 308.539 153.536 309.332 154.037C318.693 159.824 327.853 162.243 338.507 164.506C344.054 165.711 349.04 167.17 354 170C354.743 170.396 355.485 170.791 356.25 171.199C365.97 176.929 371.098 185.56 374.212 196.185C375.859 204.16 375.491 212.318 375.415 220.428C375.357 229.611 375.67 236.912 379.737 245.355C381.645 249.35 382.683 253.453 383.688 257.75C383.896 258.624 384.105 259.498 384.32 260.398C386.139 268.565 386.881 276.75 387.368 285.093C387.426 286.052 387.483 287.012 387.543 288C387.584 288.846 387.626 289.691 387.669 290.562C388.383 295.819 390.671 299.033 394.125 302.938C404.939 315.855 411.135 331.234 416.602 346.996C419.82 356.259 423.793 365.124 428.025 373.962C428.688 375.348 429.347 376.735 430.002 378.124C435.885 390.556 440.201 397.765 452.539 404.376C457.685 407.158 462.43 410.261 467.125 413.75C467.728 414.198 468.33 414.645 468.951 415.106C472.733 417.958 476.383 420.943 480 424C479.67 425.65 479.34 427.3 479 429C471.035 428.739 465.75 426.125 459 422C459.216 422.563 459.432 423.126 459.655 423.706C461.777 429.237 463.882 434.774 465.978 440.315C466.853 442.614 467.745 444.906 468.645 447.195C471.138 453.736 472.819 458.981 472 466C471.34 466.66 470.68 467.32 470 468C469.67 469.155 469.34 470.31 469 471.5C468 475 468 475 466 477C464 477.043 462 477.04 460 477C459.34 477.248 458.68 477.495 458 477.75C455.216 478.098 453.875 476.84 451.703 475.223C450.005 473.951 450.005 473.951 448.047 472.934C434.328 465.42 427.878 445.058 423.599 430.788C422.673 427.573 421.827 424.341 421.023 421.094C417.359 406.434 411.382 396.696 401.438 385.632C398.76 382.593 396.296 379.385 393.816 376.184C391.689 373.627 389.359 371.344 387 369C371.921 352.451 363.06 334.379 356.899 312.983C354.458 304.826 351.134 297.323 347.288 289.738C346.876 288.925 346.464 288.111 346.039 287.273C345.67 286.566 345.301 285.859 344.92 285.13C343.902 282.773 343.422 280.527 343 278C342.01 278.33 341.02 278.66 340 279C339.34 278.67 338.68 278.34 338 278C337.876 278.536 337.752 279.072 337.625 279.625C335.686 286.993 332.424 293.442 328.938 300.168C328.611 300.815 328.284 301.463 327.948 302.13C327.078 303.847 326.175 305.547 325.27 307.246C323.492 312.503 323.595 317.365 323.688 322.875C323.701 323.994 323.714 325.113 323.728 326.266C323.982 340.413 325.906 353.053 329.438 366.75C338.369 401.403 339.542 437.573 339.391 473.218C339.374 477.356 339.384 481.493 339.401 485.631C339.517 518.462 339.517 518.462 336 534C335.585 535.899 335.585 535.899 335.162 537.836C334.345 541.405 333.466 544.952 332.562 548.5C331.945 550.997 331.329 553.494 330.715 555.992C330.274 557.782 330.274 557.782 329.824 559.608C325.78 576.129 325.78 576.129 324 593C323.937 594.102 323.874 595.204 323.809 596.34C323.461 607.211 325.23 617.522 327.043 628.219C328.1 634.489 328.818 640.641 329 647C329.031 647.784 329.062 648.567 329.094 649.375C329.833 669.581 325.55 685.765 318.887 704.656C314.334 717.587 310.705 730.547 308 744C307.825 744.859 307.65 745.717 307.47 746.602C302.858 769.94 303.112 793.183 316.32 813.734C319.105 817.872 322.053 821.857 325.234 825.699C327 828 327 828 327.562 830.625C327 833 327 833 324.977 834.624C321.216 836.363 317.874 836.431 313.812 836.398C313.032 836.401 312.252 836.404 311.448 836.407C309.805 836.409 308.161 836.404 306.517 836.391C304.008 836.375 301.501 836.391 298.992 836.41C297.391 836.408 295.789 836.404 294.188 836.398C293.442 836.405 292.696 836.411 291.927 836.417C287.02 836.351 283.534 835.534 280 832C279.9 830.419 279.869 828.834 279.867 827.25C279.865 826.259 279.863 825.267 279.861 824.246C279.866 823.175 279.87 822.104 279.875 821C279.877 819.898 279.879 818.796 279.881 817.66C279.912 811.749 280.07 805.894 280.5 800C282.372 773.429 281.087 746.435 277.977 720.02C275.021 694.878 272.306 669.118 277 644C277.188 642.97 277.376 641.939 277.569 640.878C278.441 636.107 279.317 631.337 280.235 626.575C282.337 615.631 283.203 605.278 283.25 594.125C283.271 592.942 283.291 591.758 283.312 590.539C283.346 582.601 282.53 575.168 281.202 567.359C279.689 558.425 278.8 549.454 277.938 540.438C277.765 538.672 277.591 536.907 277.418 535.141C276.389 524.554 275.482 513.963 274.721 503.353C274.015 493.682 273.048 484.041 272.052 474.396C271.283 466.936 270.591 459.476 270 452C269.01 452 268.02 452 267 452C265.597 462.662 264.566 473.351 263.625 484.062C263.563 484.768 263.501 485.473 263.437 486.2C262.603 495.703 261.819 505.21 261.059 514.719C260.728 518.833 260.395 522.948 260.062 527.062C259.98 528.091 259.897 529.119 259.812 530.178C258.815 542.483 257.635 554.726 256.019 566.964C252.769 591.599 253.707 614.709 258.562 639.062C263.351 663.511 262.572 687.498 258.977 711.996C256.065 732.81 255.636 753.458 255.688 774.438C255.689 775.151 255.69 775.865 255.691 776.6C255.701 781.399 255.726 786.197 255.762 790.996C255.769 792.234 255.777 793.472 255.785 794.748C255.797 795.894 255.81 797.04 255.823 798.22C255.833 799.22 255.843 800.219 255.853 801.249C255.996 803.929 256.43 806.382 257 809C257.258 812.685 257.276 816.369 257.312 820.062C257.342 821.056 257.371 822.049 257.4 823.072C257.464 830.336 257.464 830.336 255.168 833.621C251.031 836.252 247.181 836.161 242.445 836.168C241.707 836.171 240.968 836.175 240.207 836.178C238.645 836.183 237.084 836.185 235.522 836.185C233.141 836.187 230.76 836.206 228.379 836.225C226.859 836.228 225.34 836.23 223.82 836.23C223.112 836.238 222.403 836.245 221.673 836.252C217.493 836.233 213.13 836.13 210 833C209.601 829.428 209.582 827.606 211.652 824.605C212.406 823.808 213.161 823.01 213.938 822.188C217.97 817.531 221.009 812.825 223.875 807.375C224.244 806.683 224.612 805.991 224.992 805.278C238.062 779.855 230.511 751.251 224 725C223.655 723.569 223.31 722.138 222.965 720.707C220.96 712.749 218.333 705.079 215.58 697.357C210.895 684.175 207.799 671.921 207.875 657.875C207.879 656.947 207.883 656.019 207.887 655.063C207.958 646.311 208.1 637.599 209.734 628.977C215.737 597.089 209.989 567.847 202 537C196.185 513.93 196.594 489.628 197 466C197.014 464.854 197.028 463.708 197.042 462.527C197.513 428.442 201.088 394.08 209.125 360.938C212.013 348.992 213.428 337.263 214 325C214.039 324.3 214.077 323.599 214.117 322.878C214.703 311.426 211.463 304.787 206.062 294.937C202.407 288.143 198 279.81 198 272C197.34 272 196.68 272 196 272C195.773 273.072 195.546 274.145 195.312 275.25C193.593 282.094 190.71 288.593 187.551 294.887C184.153 301.71 182.046 308.251 180.188 315.625C175.897 332.309 168.618 346.495 158 360C157.282 360.928 156.564 361.856 155.824 362.812C152.191 367.383 148.364 371.708 144.347 375.938C130.538 390.493 120.728 404.268 115.363 423.697C111.822 436.444 107.464 448.673 101.375 460.438C100.835 461.494 100.835 461.494 100.284 462.571C96.8207 468.986 92.5079 471.818 86 475C85.34 475.66 84.68 476.32 84 477C81.2852 477.266 81.2852 477.266 78.0625 477.25C77.0016 477.255 75.9407 477.26 74.8477 477.266C72 477 72 477 69 475C68.6607 472.668 68.3276 470.334 68 468C67.1956 467.288 67.1956 467.288 66.375 466.562C65.9212 466.047 65.4675 465.531 65 465C65.3933 459.257 66.693 454.311 68.6875 448.938C68.9493 448.212 69.2112 447.487 69.481 446.74C71.7971 440.39 74.3154 434.125 76.8984 427.879C78.1191 425.202 78.1191 425.202 78 423C77.2034 423.433 76.4067 423.866 75.5859 424.312C73.9965 425.148 73.9965 425.148 72.375 426C70.8088 426.835 70.8088 426.835 69.2109 427.688C65.8189 429.074 63.6235 429.415 60 429C59.34 428.34 58.68 427.68 58 427C58.0625 425.129 58.0625 425.129 59 423C61.125 421.027 61.125 421.027 64 418.938C64.5218 418.557 65.0437 418.176 65.5813 417.784C73.7222 411.932 82.2109 406.424 90.8398 401.32C109.169 390.229 115.777 360.695 123 342C128.594 327.531 133.759 314.36 143.949 302.41C148.563 296.988 150.008 293.72 150.359 286.59C150.961 276.101 151.579 265.807 154.312 255.625C154.501 254.921 154.69 254.217 154.884 253.492C155.812 250.301 156.845 247.325 158.278 244.319C162.19 236.03 162.522 229.203 162.125 220.125C161.485 203.227 163.226 188.66 174.988 175.852C183.187 168.306 193.231 165.455 203.905 163.365C215.581 161.048 224.763 157.623 234.242 150.258C236 149 236 149 238 149C238.289 148.423 238.577 147.845 238.875 147.25C239.567 145.867 240.284 144.496 241.043 143.148C242.807 139.189 242.622 135.235 242 131C240.879 128.359 239.557 125.928 238.156 123.426C236.98 120.957 236.679 119.328 236.562 116.625C236.342 112.457 234.94 109.708 232.938 106.062C229.943 100.496 229.255 96.2383 230 90C231.98 89.01 231.98 89.01 234 88C233.969 87.3818 233.937 86.7636 233.905 86.1267C233.19 69.8674 233.509 57.1333 244.562 44.25C256.324 31.9224 272.891 31.1193 287.262 39.2852Z" fill="#DFE4ED"/>
<path id="back_lats" d="M817 231C817.055 232.791 817.093 234.583 817.125 236.375C817.148 237.373 817.171 238.37 817.195 239.398C816.74 247.792 814.575 254.632 810.75 262.062C807.728 268.136 805.173 274.098 803.125 280.562C800.766 287.822 797.268 293.906 793.184 300.329C785.994 311.637 780.386 322.992 777 336C775.847 334.847 774.695 333.693 773.547 332.535C772.51 331.506 771.458 330.493 770.391 329.496C757.099 316.844 749.031 300.578 748.172 282.176C748.049 278.931 748.049 278.931 747.453 275.48C747.031 271.588 746.953 268.783 748 265C751.637 261.331 755.702 258.888 760.102 256.233C763.099 254.286 765.659 251.95 768.25 249.5C768.734 249.047 769.218 248.594 769.717 248.127C773.922 244.149 778 240.043 782.039 235.898C785.249 232.791 787.586 232.779 791.961 232.465C793.752 232.334 793.752 232.334 795.578 232.201C796.831 232.114 798.084 232.027 799.375 231.938C800.62 231.847 801.866 231.756 803.149 231.662C812.388 231 812.388 231 817 231Z" fill="#CED7DF"/>
<path id="back_lats_2" d="M663 232C667.002 231.927 670.998 231.953 675 232C675.809 232.006 676.618 232.012 677.451 232.018C680.114 232.047 682.775 232.114 685.438 232.188C686.734 232.196 686.734 232.196 688.056 232.205C692.372 232.357 694.384 232.504 697.836 235.281C698.907 236.627 698.907 236.627 700 238C704.405 242.552 708.806 246.966 713.75 250.938C714.567 251.595 715.385 252.252 716.227 252.93C718.303 254.479 720.327 255.843 722.523 257.195C731.51 262.956 731.51 262.956 732.859 268.586C732.875 272.478 732.531 276.147 732 280C731.968 280.938 731.936 281.877 731.902 282.844C731.371 298.179 724.718 313.538 714.285 324.527C711.409 327.639 708.91 330.966 706.41 334.383C705.945 334.916 705.48 335.45 705 336C704.34 336 703.68 336 703 336C702.66 334.875 702.319 333.749 701.969 332.59C697.85 319.385 692.313 308.096 684.813 296.5C681.241 290.813 679.18 285.178 677.211 278.781C674.786 271.208 671.975 263.51 667.25 257.063C662.632 250.217 662.865 239.957 663 232Z" fill="#CED7E0"/>
<path id="front_chest" d="M261.406 185.816C263 187 263 187 265 189C265.188 191.563 265.256 194.015 265.23 196.578C265.23 197.341 265.23 198.104 265.229 198.89C265.226 200.514 265.218 202.139 265.206 203.763C265.188 206.199 265.185 208.634 265.186 211.07C265.178 214.979 265.13 218.885 265.047 222.792C265.016 224.235 264.991 225.679 264.973 227.122C264.942 229.056 264.872 230.989 264.801 232.922C264.751 234.548 264.751 234.548 264.7 236.206C263.767 239.929 262.178 240.962 259 243C247.389 247.553 237.367 244.184 226.43 239.457C217.404 235.39 208.685 230.743 200 226C199.435 220.274 201.251 216.736 203.937 211.875C204.341 211.131 204.744 210.387 205.159 209.62C210.837 199.387 217.664 189.292 227.562 182.75C228.306 182.25 229.05 181.75 229.816 181.234C239.911 175.528 252.465 179.935 261.406 185.816Z" fill="#CED7E0"/>
<path id="front_chest_2" d="M314 184C317.449 187.026 320.226 190.355 323 194C323.603 194.75 324.207 195.5 324.828 196.273C328.741 201.437 331.64 206.995 334.438 212.813C334.792 213.542 335.147 214.272 335.512 215.024C338.831 222.176 338.831 222.176 338 226C333.16 230.258 326.83 232.367 321 234.938C319.831 235.463 318.662 235.988 317.457 236.529C292.57 247.564 292.57 247.564 278.945 242.949C276.624 241.817 275.55 241.093 274 239C273.668 236.451 273.511 234.132 273.488 231.578C273.47 230.841 273.452 230.104 273.434 229.345C273.38 226.98 273.346 224.615 273.312 222.25C273.279 220.704 273.245 219.159 273.209 217.613C273.141 214.561 273.093 211.508 273.061 208.455C273.03 205.519 272.954 202.589 272.841 199.654C272.804 198.306 272.767 196.958 272.73 195.609C272.687 194.428 272.643 193.247 272.598 192.03C273.088 188.338 274.125 187.273 277 185C288.983 177.44 301.769 176.645 314 184Z" fill="#CFD8E1"/>
<path id="back_glutes" d="M718.437 382.812C719.707 382.794 719.707 382.794 721.002 382.775C725.433 382.765 728.996 382.859 733 385C735.641 387.641 734.23 395.141 734.24 398.936C734.25 401.095 734.281 403.254 734.312 405.414C734.319 406.799 734.324 408.185 734.328 409.57C734.337 410.826 734.347 412.082 734.356 413.375C733.503 422.057 728.558 428.148 722.059 433.641C715.356 438.581 707.961 442.449 700.703 446.498C694.854 449.804 689.704 453.217 684.742 457.77C684.167 458.176 683.592 458.582 683 459C682.01 458.67 681.02 458.34 680 458C676.673 450.549 676.269 442.037 676 434C675.973 433.196 675.946 432.393 675.917 431.565C675.166 406.016 675.166 406.016 680.863 398.562C690.958 388.518 704.381 382.823 718.437 382.812Z" fill="#CED7E0"/>
<path id="back_glutes_2" d="M789.438 390.625C790.1 391.014 790.762 391.403 791.445 391.804C796.747 395.203 800.825 398.99 803 405C803.907 410.784 803.779 416.644 803.672 422.482C803.625 425.23 803.631 427.974 803.645 430.723C803.61 440.843 802.827 449.515 799 459C794.982 457.487 792.34 455.703 789 453C786.17 451.155 783.272 449.425 780.375 447.688C778.758 446.705 777.14 445.722 775.524 444.738C772.929 443.165 770.331 441.6 767.727 440.043C758.89 434.637 749.142 428.4 746 418C745.487 413.279 745.531 408.619 745.625 403.875C745.626 402.626 745.628 401.377 745.629 400.09C745.685 394.255 745.925 389.508 748 384C762.816 381.229 776.513 382.857 789.438 390.625Z" fill="#CED7E0"/>
<path id="front_quads" d="M327 388C327.99 388 328.98 388 330 388C333.489 398.467 332.251 411.094 332.295 422.033C332.307 423.997 332.327 425.961 332.357 427.924C332.565 441.802 331.37 454.531 328 468C327.81 468.769 327.619 469.538 327.423 470.33C326.101 475.6 324.665 480.834 323.187 486.062C322.971 486.837 322.755 487.611 322.532 488.408C319.591 498.925 316.414 509.27 312.375 519.426C307.769 531.398 307.768 543.43 307.437 556.062C307.394 557.611 307.351 559.16 307.307 560.709C307.201 564.473 307.099 568.236 307 572C305.35 572 303.7 572 302 572C298.763 566.501 298.941 559.971 298.375 553.75C298.309 553.047 298.244 552.345 298.176 551.62C296.373 531.953 296.535 512.286 297.375 492.562C297.406 491.807 297.436 491.051 297.468 490.272C298.293 475.297 304.24 461.028 309.437 447.125C314.625 433.224 319.594 419.337 323.25 404.938C323.505 403.958 323.76 402.979 324.023 401.971C325.218 397.333 326.327 392.748 327 388Z" fill="#D1D9E2"/>
<path id="front_quads_2" d="M208 388C208.66 388 209.32 388 210 388C210.291 389.067 210.583 390.135 210.883 391.234C212.234 396.162 213.614 401.082 215 406C215.305 407.091 215.305 407.091 215.616 408.203C219.63 422.439 224.488 436.39 229.33 450.36C236.976 472.447 240.222 491.968 240.25 515.312C240.252 516.144 240.254 516.976 240.256 517.833C240.263 530.384 239.711 542.814 238.563 555.312C238.495 556.049 238.428 556.786 238.358 557.546C237.237 569.527 237.237 569.527 236 572C234.334 572.043 232.666 572.041 231 572C229.001 570.001 229.863 565.964 229.859 563.223C229.841 561.576 229.821 559.93 229.801 558.283C229.772 555.701 229.75 553.12 229.75 550.538C229.732 537.918 227.988 526.971 224 515C223.685 514.024 223.371 513.049 223.047 512.043C222.267 509.685 221.451 507.342 220.625 505C217.92 497.07 215.519 489.083 213.313 481C213.039 480.018 212.766 479.035 212.485 478.023C211.594 474.695 210.784 471.356 210 468C209.826 467.267 209.651 466.534 209.472 465.779C206.079 451.176 205.478 437.198 205.688 422.25C205.699 420.109 205.709 417.969 205.717 415.828C205.73 413.766 205.745 411.703 205.762 409.641C205.769 408.703 205.777 407.765 205.784 406.799C205.997 392.006 205.997 392.006 208 388Z" fill="#D0D8E1"/>
<path id="back_traps" d="M807 171C807 171.66 807 172.32 807 173C806.175 173.516 805.35 174.031 804.5 174.562C792.52 182.22 786.71 195.941 782.062 208.75C774.843 228.016 766.455 245.835 749 258C748.34 258 747.68 258 747 258C746.248 245.864 745.839 233.778 745.87 221.618C745.875 219.105 745.87 216.592 745.863 214.078C745.858 206.923 745.914 199.765 746.258 192.617C746.326 191.153 746.326 191.153 746.395 189.66C747.396 185.26 749.861 182.729 753.594 180.34C769.234 172.793 789.429 166.314 807 171Z" fill="#CFD8E0"/>
<path id="back_traps_2" d="M677.801 169.734C695.119 169.811 719.929 171.929 733 185C733.249 187.326 733.426 189.619 733.555 191.953C733.597 192.698 733.639 193.443 733.682 194.211C734.186 204.258 734.149 214.314 734.13 224.37C734.125 227.786 734.13 231.201 734.137 234.617C734.136 236.802 734.135 238.987 734.133 241.172C734.135 242.186 734.137 243.201 734.139 244.246C734.134 245.665 734.134 245.665 734.129 247.112C734.129 247.938 734.128 248.764 734.127 249.615C733.992 252.156 733.556 254.52 733 257C718.783 251.062 708.656 234.414 703 221C700.866 215.528 698.794 210.032 696.815 204.502C691.945 191.275 684.86 179.827 673 172C675 170 675 170 677.801 169.734Z" fill="#CFD8E1"/>
<path id="front_biceps" d="M190 225C192.461 226.916 192.989 227.966 194 231C195.108 242.413 194.78 252.874 189 263C188.542 263.856 188.085 264.712 187.613 265.594C184.055 271.911 179.666 277.469 175 283C174.353 283.771 173.706 284.542 173.039 285.336C166.614 292.846 166.614 292.846 162.957 293.195C162.249 293.172 161.542 293.149 160.812 293.125C159.554 293.084 158.296 293.043 157 293C156.048 290.145 155.81 288.091 155.684 285.113C155.642 284.175 155.6 283.238 155.557 282.271C155.517 281.295 155.478 280.319 155.438 279.312C155.373 277.83 155.373 277.83 155.307 276.318C155.201 273.879 155.099 271.44 155 269C153.515 269.495 153.515 269.495 152 270C152.584 264.19 153.728 258.889 155.438 253.312C155.655 252.58 155.872 251.847 156.096 251.092C157.23 247.314 158.458 243.637 160 240C160.99 240.66 161.98 241.32 163 242C163.352 241.42 163.704 240.84 164.066 240.242C170.194 230.547 177.64 222.847 190 225Z" fill="#D1D8E1"/>
<path id="front_biceps_2" d="M360.062 226.062C368.55 229.657 372.46 236.893 376 245C376.33 244.34 376.66 243.68 377 243C377.66 243 378.32 243 379 243C379.709 244.825 380.391 246.661 381.062 248.5C381.445 249.521 381.828 250.542 382.223 251.594C382.982 254.922 382.827 257.219 382.286 260.55C381.492 267.344 382.013 274.345 382.127 281.174C382.138 282.391 382.149 283.609 382.16 284.863C382.177 285.97 382.194 287.076 382.211 288.216C382 291 382 291 380 294C373.313 293.476 370.268 291.512 365.824 286.59C363.53 283.741 361.253 280.882 359 278C358.291 277.107 357.582 276.213 356.852 275.293C350.377 266.821 344.09 256.978 344 246C343.963 244.712 343.925 243.424 343.887 242.098C343.859 240.648 343.834 239.199 343.812 237.75C343.799 237.052 343.786 236.353 343.772 235.634C343.768 231.947 343.835 229.069 346 226C350.321 223.84 355.586 224.64 360.062 226.062Z" fill="#CFD7E1"/>
<path id="back_calves" d="M701 576C701.66 576 702.32 576 703 576C713.915 596.693 720.432 616.095 725 639C725.182 639.747 725.364 640.494 725.551 641.264C726.174 645.059 726.163 648.826 726.168 652.66C726.171 653.487 726.175 654.314 726.178 655.166C726.183 656.908 726.185 658.651 726.185 660.393C726.188 663.057 726.206 665.721 726.225 668.385C726.228 670.081 726.23 671.777 726.23 673.473C726.238 674.268 726.245 675.062 726.252 675.881C726.236 679.727 726.187 682.745 724 686C720.613 686.315 718.559 686.315 715.563 684.625C709.212 678.12 705.071 671.946 704.535 662.805C704.458 661.545 704.381 660.286 704.302 658.988C704.222 657.617 704.142 656.246 704.063 654.875C703.892 652.021 703.719 649.167 703.543 646.312C703.499 645.598 703.455 644.883 703.41 644.146C703.147 639.986 702.824 635.838 702.426 631.688C700.652 613.126 700.803 594.626 701 576Z" fill="#D1D8E1"/>
<path id="back_calves_2" d="M776 577C776.66 577 777.32 577 778 577C778.321 602.013 778.317 626.664 775.351 651.527C774.843 656.548 774.651 661.58 774.475 666.621C773.658 672.431 770.643 676.54 767 681C766.477 681.674 765.953 682.348 765.414 683.043C763.937 684.75 763.937 684.75 761 687C757.687 687 757.687 687 755 686C753.328 682.656 753.815 678.893 753.797 675.215C753.791 674.326 753.785 673.437 753.78 672.521C753.77 670.627 753.764 668.733 753.76 666.839C753.75 664.001 753.719 661.164 753.687 658.326C753.595 642.724 755.536 628.38 760.187 613.438C760.634 611.984 760.634 611.984 761.089 610.501C763.463 603.065 766.506 596.216 770.199 589.352C772.367 585.318 774.197 581.207 776 577Z" fill="#D0D8E1"/>
<path id="back_hamstrings" d="M773 454C773.66 454 774.32 454 775 454C787.906 485.734 794.972 525.16 781.473 557.773C778.813 563.601 775.956 569.318 773 575C772.01 574.67 771.02 574.34 770 574C767.668 547.756 767.789 522.265 769.375 496C769.438 494.949 769.501 493.897 769.566 492.814C770.357 479.827 771.412 466.915 773 454Z" fill="#D1D8E1"/>
<path id="back_hamstrings_2" d="M705 454C705.66 454 706.32 454 707 454C707.05 454.556 707.1 455.113 707.152 455.686C707.392 458.353 707.634 461.02 707.875 463.688C707.954 464.561 708.032 465.434 708.113 466.334C708.239 467.721 708.239 467.721 708.367 469.137C708.46 470.177 708.553 471.218 708.648 472.29C708.914 475.094 709.202 477.891 709.508 480.691C710.862 493.41 711.319 505.964 711.25 518.75C711.248 519.71 711.246 520.67 711.245 521.659C711.206 539.493 710.41 557.223 709 575C706 574 706 574 704.789 572.089C704.405 571.262 704.021 570.434 703.625 569.582C702.985 568.205 702.985 568.205 702.332 566.8C701.892 565.814 701.453 564.828 701 563.812C700.551 562.813 700.102 561.814 699.639 560.784C696.352 553.263 694.038 546.174 693 538C692.911 537.342 692.822 536.683 692.73 536.005C689.235 508.21 694.386 481.033 704 455C704.33 454.67 704.66 454.34 705 454Z" fill="#D1D8E2"/>
<path id="front_abs_lower" d="M299 333C301.118 334.586 301.909 335.459 302.352 338.094C302.194 344.515 301.461 350.683 300.312 357C300.046 358.496 300.046 358.496 299.773 360.023C298.075 369.194 295.742 378.092 293 387C292.66 388.154 292.319 389.307 291.969 390.496C288.071 403.085 288.071 403.085 284 407C280.375 407.688 280.375 407.688 277 407C275.31 405.697 275.31 405.697 274 404C273.739 400.947 273.676 398.113 273.75 395.063C273.763 394.132 273.776 393.201 273.79 392.242C273.825 390.093 273.868 387.943 273.917 385.794C273.995 382.243 274.048 378.692 274.094 375.14C274.141 371.886 274.202 368.632 274.266 365.378C274.297 363.756 274.323 362.133 274.345 360.51C274.379 358.203 274.431 355.897 274.488 353.59C274.495 352.898 274.501 352.206 274.508 351.493C274.668 346.218 276.004 342.922 279.797 339.27C285.718 334.853 291.4 332.136 299 333Z" fill="#D0D7E1"/>
<path id="front_abs_lower_2" d="M247 333C252.724 334.99 258.872 338.601 262.142 343.824C263.171 346.433 263.292 348.513 263.351 351.316C263.377 352.377 263.403 353.439 263.43 354.532C263.457 356.245 263.457 356.245 263.484 357.992C263.508 359.171 263.533 360.35 263.557 361.564C263.606 364.057 263.649 366.55 263.688 369.043C263.75 372.854 263.833 376.663 263.918 380.473C263.962 382.896 264.005 385.319 264.047 387.742C264.073 388.88 264.099 390.018 264.125 391.19C264.253 401.117 264.253 401.117 262 406C261 407 261 407 257.625 407.25C254 407 254 407 252.445 405.922C250.388 403.186 249.35 400.205 248.25 397C247.998 396.276 247.747 395.552 247.487 394.806C245.095 387.686 243.149 380.452 241.25 373.188C240.956 372.068 240.663 370.948 240.36 369.795C237.996 360.519 235.727 351.059 235.688 341.438C235.671 340.467 235.654 339.496 235.637 338.496C236 336 236 336 237.289 334.188C240.294 332.102 243.545 332.444 247 333Z" fill="#D1D9E2"/>
<path id="front_calves" d="M249 630C249.66 630 250.32 630 251 630C253.206 638.629 255.398 647.233 257 656C257.66 655.34 258.32 654.68 259 654C267.021 666.031 261.712 691.185 260 705C259.904 705.791 259.808 706.581 259.709 707.396C259.158 711.933 258.588 716.467 258 721C257.67 721 257.34 721 257 721C256.34 718.03 255.68 715.06 255 712C254.818 713.042 254.636 714.083 254.449 715.156C252.704 725.118 250.886 735.064 249 745C248.34 745 247.68 745 247 745C243.232 729.927 242.385 714.473 242 699C241.966 697.684 241.932 696.367 241.897 695.011C241.367 672.446 242.84 651.846 249 630Z" fill="#D1D8E1"/>
<path id="back_calves_3" d="M785 567C785.99 567.33 786.98 567.66 788 568C790.616 573.585 791.458 578.326 791.512 584.438C791.53 585.203 791.548 585.969 791.566 586.757C791.62 589.171 791.654 591.585 791.688 594C791.721 595.65 791.755 597.3 791.791 598.949C791.876 602.966 791.943 606.983 792 611C792.66 611 793.32 611 794 611C794.33 609.35 794.66 607.7 795 606C795.33 606 795.66 606 796 606C797.414 615.861 798.419 625.05 797 635C796.67 635 796.34 635 796 635C796.021 635.791 796.042 636.581 796.064 637.396C796.148 641.035 796.199 644.673 796.25 648.312C796.3 650.177 796.3 650.177 796.352 652.08C796.457 662.103 794.918 672.268 788 680C784.938 681.062 784.938 681.062 782 681C779.408 679.212 779.013 678.04 778 675C777.875 672.362 777.81 669.763 777.813 667.125C777.813 665.984 777.813 665.984 777.813 664.819C777.869 659.203 778.471 653.84 779.467 648.307C781 638.796 781.151 629.138 781.246 619.523C781.279 617.201 781.312 614.878 781.346 612.555C781.393 608.956 781.438 605.358 781.477 601.76C781.517 598.243 781.568 594.727 781.621 591.211C781.63 590.149 781.638 589.087 781.647 587.993C781.94 570.06 781.94 570.06 785 567Z" fill="#CFD8E0"/>
<path id="back_calves_4" d="M692 567C692.99 567 693.98 567 695 567C696.646 569.9 697.254 571.999 697.287 575.324C697.301 576.175 697.314 577.027 697.328 577.904C697.333 578.822 697.338 579.741 697.344 580.688C697.358 581.65 697.371 582.613 697.386 583.605C697.416 585.668 697.441 587.731 697.464 589.793C697.714 619.967 697.714 619.967 700.547 649.984C701.233 655.243 701.223 660.516 701.25 665.812C701.271 666.848 701.291 667.884 701.312 668.951C701.318 669.943 701.323 670.935 701.328 671.957C701.342 673.302 701.342 673.302 701.356 674.675C700.929 677.463 700.191 678.289 698 680C696.125 681 696.125 681 694 681C688.574 676.795 685.378 670.664 684 664C683.876 662.011 683.799 660.019 683.754 658.027C683.705 656.307 683.705 656.307 683.654 654.553C683.593 652.139 683.536 649.725 683.482 647.311C683.448 646.165 683.414 645.02 683.379 643.84C683.354 642.792 683.329 641.744 683.303 640.664C683.18 637.775 683.18 637.775 681 635C680.953 632.398 680.953 632.398 681.25 629.375C681.381 627.902 681.381 627.902 681.516 626.398C681.884 623.811 682.372 621.468 683.008 618.949C684.414 612.839 684.459 606.683 684.625 600.438C684.664 599.238 684.702 598.039 684.742 596.803C684.836 593.869 684.921 590.935 685 588C685.33 588 685.66 588 686 588C686 594.6 686 601.2 686 608C686.99 607.505 686.99 607.505 688 607C688.015 606.144 688.029 605.287 688.044 604.405C688.106 601.18 688.18 597.956 688.262 594.732C688.295 593.345 688.323 591.959 688.346 590.572C688.486 582.325 689.002 574.77 692 567Z" fill="#CFD7E0"/>
<path id="front_quads_3" d="M334 450C334.66 450 335.32 450 336 450C336.33 464.52 336.66 479.04 337 494C337.33 494 337.66 494 338 494C339.513 503.645 339.513 513.355 338 523C336.68 523 335.36 523 334 523C333.723 523.791 333.447 524.581 333.161 525.396C332.112 528.385 331.059 531.372 330.002 534.359C329.329 536.265 328.662 538.172 327.994 540.08C325.621 546.777 323.046 553.249 320.029 559.679C318.418 563.313 317.616 567.019 316.773 570.883C316.518 571.581 316.263 572.28 316 573C314.515 573.495 314.515 573.495 313 574C312.95 568.826 312.914 563.653 312.89 558.479C312.88 556.725 312.867 554.97 312.849 553.216C312.711 539.026 313.365 526.558 318.634 513.197C321.572 505.721 323.664 498.078 325.688 490.312C325.881 489.581 326.075 488.849 326.274 488.095C329.109 477.335 331.327 466.668 332.563 455.594C333 452 333 452 334 450Z" fill="#D0D8E1"/>
<path id="front_quads_4" d="M202 449C202.66 449 203.32 449 204 449C204.095 449.622 204.19 450.245 204.288 450.886C207.477 471.517 212.075 490.965 218.79 510.743C223.798 525.755 225.438 539.265 225.188 554.938C225.172 556.604 225.159 558.27 225.146 559.936C225.114 563.957 225.062 567.979 225 572C223.515 572.495 223.515 572.495 222 573C219.688 566.967 217.389 560.928 215.099 554.886C214.093 552.244 213.074 549.608 212.051 546.973C204.87 528.274 201.812 510.868 201.902 490.797C201.904 489.593 201.905 488.389 201.907 487.149C201.912 483.349 201.925 479.55 201.938 475.75C201.943 473.155 201.947 470.56 201.951 467.965C201.962 461.643 201.979 455.322 202 449Z" fill="#D0D8E1"/>
<path id="front_calves_2" d="M286 631C286.99 631.33 287.98 631.66 289 632C293.695 656.217 296.089 679.342 295 704C294.971 704.672 294.943 705.343 294.913 706.036C294.719 710.506 294.471 714.972 294.187 719.438C294.118 720.538 294.048 721.638 293.977 722.772C293.407 730.088 291.987 736.94 290 744C289.01 744 288.02 744 287 744C272.784 659.873 272.784 659.873 286 631Z" fill="#D1D9E2"/>
<path id="back_adductors" d="M726 436C727.32 436 728.64 436 730 436C732.899 457.43 732.964 478.192 728 499.359C726.737 504.874 726.069 510.452 725.375 516.062C725.241 517.119 725.107 518.175 724.969 519.264C724.642 521.842 724.319 524.421 724 527C723.01 526.67 722.02 526.34 721 526C720.89 525.138 720.781 524.275 720.668 523.387C718.723 508.415 716.43 493.546 713.358 478.761C711.849 471.472 710.78 464.322 710.625 456.875C710.569 455.841 710.569 455.841 710.512 454.785C710.446 450.961 710.8 449.248 713.227 446.242C714.142 445.502 715.057 444.762 716 444C716.799 443.345 717.598 442.69 718.422 442.016C719.19 441.433 719.958 440.85 720.75 440.25C723.474 438.24 723.474 438.24 726 436Z" fill="#CFD8E1"/>
<path id="back_adductors_2" d="M751 436C755.085 436.847 757.343 438.636 760.563 441.312C761.988 442.482 761.988 442.482 763.441 443.676C768.751 448.499 768.751 448.499 769.434 452.609C769.449 464.619 767.173 476.225 765 488C764.819 488.988 764.637 489.975 764.45 490.993C764.273 491.955 764.096 492.918 763.914 493.91C763.741 494.853 763.568 495.797 763.389 496.769C763.05 498.612 762.709 500.455 762.367 502.298C761.147 508.943 760.185 515.588 759.395 522.297C759 525 759 525 758 527C757.34 527 756.68 527 756 527C754.883 524.767 754.794 523.345 754.641 520.863C754.579 519.992 754.518 519.121 754.454 518.223C754.387 517.263 754.32 516.302 754.25 515.312C753.572 506.287 752.274 497.503 750.666 488.599C747.476 470.784 747.005 453.719 751 436Z" fill="#CED7DF"/>
<path id="front_quads_5" d="M217 389C217.99 389.33 218.98 389.66 220 390C221.219 392.492 221.219 392.492 222.5 395.875C224.974 402.078 228.035 407.759 231.438 413.5C241.369 430.369 248.169 446.924 252.813 465.938C253.02 466.777 253.227 467.616 253.44 468.481C255.857 478.84 256.147 489.087 256.063 499.688C256.058 500.783 256.053 501.878 256.049 503.006C256.037 505.671 256.021 508.335 256 511C255.34 511 254.68 511 254 511C253.66 509.763 253.319 508.525 252.969 507.25C247.836 488.802 242.026 470.745 234.726 453.037C234.466 452.406 234.205 451.775 233.938 451.125C233.678 450.496 233.419 449.866 233.151 449.218C228.259 437.281 224.77 425.169 221.683 412.649C220.786 409.168 219.694 405.786 218.563 402.375C217.066 397.706 216.617 393.885 217 389Z" fill="#D0D9E2"/>
<path id="front_forearm" d="M156 301C156.084 302.603 156.14 304.208 156.188 305.812C156.24 307.152 156.24 307.152 156.293 308.52C155.507 317.855 152.054 325.539 147.312 333.5C146.777 334.418 146.242 335.336 145.69 336.281C142.359 341.922 138.848 347.258 134.867 352.461C131.928 356.458 129.426 360.71 126.867 364.957C125.319 367.48 123.704 369.895 122 372.312C117.602 378.776 114.395 385.977 111 393C110.34 393 109.68 393 109 393C109 390.03 109 387.06 109 384C108.01 383.67 107.02 383.34 106 383C106.818 381.252 106.818 381.252 107.652 379.469C112.61 368.733 117.051 357.904 121.08 346.785C121.434 345.813 121.788 344.841 122.152 343.84C122.462 342.977 122.771 342.115 123.09 341.226C124 339 124 339 126 336C126.495 336.495 126.495 336.495 127 337C130.926 332.639 133.439 328.436 135.875 323.125C138.862 316.894 142.008 311.852 147 307C147.549 306.404 148.098 305.809 148.664 305.195C152.589 301 152.589 301 156 301Z" fill="#CFD7E1"/>
<path id="front_quads_6" d="M320 389C320.33 389 320.66 389 321 389C320.695 398.66 318.854 407.213 315.875 416.375C315.662 417.046 315.449 417.716 315.23 418.407C310.869 432.139 305.667 445.53 300.416 458.94C293.796 475.885 287.42 493.078 284 511C283.34 511 282.68 511 282 511C281.069 504.904 280.935 499.153 281.25 493C281.296 492.082 281.342 491.163 281.389 490.217C281.877 481.94 283.196 474.088 285 466C285.215 464.907 285.431 463.814 285.652 462.688C290.105 441.189 301.237 422.433 311.984 403.555C314.724 398.74 317.367 393.873 320 389Z" fill="#D0D9E2"/>
<path id="back_rear_deltoid" d="M676 181C676.99 181.66 677.98 182.32 679 183C673.501 195.046 662.742 205.309 653.434 214.547C650.121 217.886 647.072 221.438 643.988 224.988C643.332 225.652 642.676 226.316 642 227C641.34 227 640.68 227 640 227C637.688 219.448 637.388 211.835 637 204C636.01 204.33 635.02 204.66 634 205C634.115 203.562 634.242 202.124 634.375 200.687C634.445 199.887 634.514 199.086 634.586 198.262C635 196 635 196 637 193C637 194.65 637 196.3 637 198C637.66 198 638.32 198 639 198C639.147 197.432 639.294 196.863 639.445 196.277C641.402 189.54 644.036 184.481 650.109 180.68C659.026 176.283 666.914 177.8 676 181Z" fill="#CFD7E1"/>
<path id="back_traps_3" d="M744 105C744.66 105 745.32 105 746 105C747.272 109.496 748.049 113.454 748.188 118.125C749.155 129.386 755.076 138.046 763.375 145.227C764.902 146.502 766.451 147.752 768 149C768.896 149.741 769.792 150.482 770.715 151.246C775.191 154.895 779.778 158.357 784.504 161.676C786 163 786 163 787 166C786.007 166.086 785.015 166.173 783.992 166.262C774.37 167.213 766.008 169.338 757 173C755.979 173.401 754.958 173.802 753.906 174.215C751.597 175.126 749.295 176.053 747 177C741.871 171.871 744.622 148.942 744.448 141.532C744.26 133.733 744.002 125.984 743.214 118.217C742.961 115.598 742.866 113.006 742.875 110.375C742.872 109.558 742.87 108.74 742.867 107.898C743 106 743 106 744 105Z" fill="#CFD7E1"/>
<path id="back_traps_4" d="M735 105C735.99 105.33 736.98 105.66 738 106C737.388 119.875 736.624 133.733 735.698 147.591C735.496 150.619 735.301 153.649 735.105 156.678C734.977 158.62 734.848 160.562 734.719 162.504C734.661 163.402 734.604 164.299 734.545 165.225C734.488 166.057 734.432 166.89 734.373 167.748C734.301 168.839 734.301 168.839 734.227 169.952C733.996 172.039 733.556 173.977 733 176C729.266 175.399 726.315 174.306 722.938 172.625C713.618 168.297 704.211 166.583 694 166C695.32 162.98 696.605 161.23 699.223 159.238C699.843 158.759 700.464 158.281 701.104 157.787C701.75 157.3 702.396 156.814 703.062 156.312C704.345 155.33 705.628 154.347 706.91 153.363C707.93 152.583 708.949 151.804 710 151C710.33 150.67 710.66 150.34 711 150C710.34 149.34 709.68 148.68 709 148C709.99 147.34 710.98 146.68 712 146C712 146.66 712 147.32 712 148C720.869 143.119 727.578 134.175 731.25 124.812C732.162 120.175 732.437 115.607 732.656 110.891C733 108 733 108 735 105Z" fill="#CED7E0"/>
<path id="back_lower_back" d="M748 311C752.004 312.335 752.961 314.857 755 318.312C758.93 324.726 763.412 330.064 768.617 335.477C773.758 340.92 773.758 340.92 774.688 345.062C773.612 351.223 769.865 355.213 766 360C765.295 360.886 764.59 361.771 763.863 362.684C762.522 364.362 761.172 366.035 759.813 367.699C758.187 369.763 756.745 371.864 755.313 374.062C753 377 753 377 750.25 378C749.508 378 748.765 378 748 378C746.186 376.186 746.872 373.376 746.871 370.936C746.867 369.638 746.864 368.339 746.861 367.002C746.863 365.574 746.865 364.147 746.867 362.719C746.867 361.265 746.866 359.812 746.864 358.358C746.863 355.308 746.865 352.258 746.87 349.208C746.875 345.291 746.872 341.373 746.866 337.455C746.862 334.453 746.864 331.45 746.866 328.448C746.867 327.003 746.866 325.558 746.864 324.113C746.861 322.097 746.866 320.081 746.871 318.064C746.871 316.915 746.872 315.765 746.873 314.581C747 312 747 312 748 311Z" fill="#CFD8E0"/>
<path id="back_rear_deltoid_2" d="M829.688 180.25C835.58 183.363 839.539 186.453 841.625 192.945C844.306 203.931 844.552 216.568 840 227C839.34 227 838.68 227 838 227C836.8 225.555 836.8 225.555 835.422 223.543C831.841 218.606 827.632 214.533 823.25 210.312C814.697 201.924 807.048 193.408 801 183C809.088 177.972 820.536 177.012 829.688 180.25Z" fill="#D0D8E1"/>
<path id="back_hamstrings_3" d="M695 458C696.131 461.392 695.855 462.255 694.855 465.578C694.459 466.936 694.459 466.936 694.055 468.322C693.769 469.288 693.483 470.254 693.187 471.25C688.323 488.493 687.476 505.17 687 523C686.971 523.85 686.943 524.701 686.913 525.577C686.632 534.155 687.136 541.834 689.32 550.207C691.071 557.403 689.638 563.217 687 570C686.01 569.34 685.02 568.68 684 568C683.01 568 682.02 568 681 568C680.298 565.462 679.613 562.921 678.937 560.375C678.738 559.662 678.539 558.949 678.334 558.215C677.177 553.791 676.861 550.542 678 546C678.66 546.33 679.32 546.66 680 547C679.788 545.813 679.576 544.626 679.357 543.403C677.327 531.435 676.526 519.8 676.609 507.669C676.625 504.841 676.609 502.015 676.59 499.188C676.568 481.703 676.568 481.703 680 474C680.452 472.903 680.905 471.806 681.371 470.676C683.251 467.588 685.332 465.548 688.062 463.188C688.94 462.418 689.818 461.648 690.723 460.855C693 459 693 459 695 458Z" fill="#CFD8E1"/>
<path id="back_lower_back_2" d="M730 311C730.99 311 731.98 311 733 311C733 332.78 733 354.56 733 377C731.02 377.495 731.02 377.495 729 378C706.422 352.103 706.422 352.103 705.703 345.113C706.068 341.285 706.861 340.621 709.75 338.188C714.309 333.954 717.824 329.352 721.375 324.25C721.886 323.517 722.398 322.784 722.925 322.028C724.972 319.059 726.92 316.145 728.664 312.984C729.105 312.33 729.546 311.675 730 311Z" fill="#D0D8E1"/>
<path id="back_hamstrings_4" d="M784 459C790.212 461.173 795.563 465.244 799.176 470.812C803.762 481.724 803.324 494.972 803.261 506.613C803.25 508.932 803.261 511.25 803.273 513.568C803.29 528.174 801.215 542.115 798.062 556.375C797.81 557.587 797.558 558.798 797.299 560.047C797.047 561.194 796.795 562.341 796.535 563.523C796.312 564.554 796.089 565.584 795.86 566.646C795.434 567.811 795.434 567.811 795 569C793.515 569.495 793.515 569.495 792 570C791.684 568.647 791.372 567.292 791.062 565.938C790.888 565.183 790.714 564.429 790.535 563.652C789.289 557.477 788.988 552.867 790.418 546.676C792.281 537.81 792.427 529.216 792.312 520.188C792.304 519.006 792.304 519.006 792.296 517.801C792.149 497.338 789.708 478.673 784 459Z" fill="#CFD8E0"/>
<path id="back_triceps" d="M823 222C825.696 222.361 826.775 222.743 828.598 224.82C829.081 225.581 829.564 226.341 830.063 227.125C830.548 227.87 831.034 228.615 831.535 229.383C835.124 235.795 836.449 240.447 836.363 247.73C836.365 248.968 836.365 248.968 836.367 250.231C836.365 252.883 836.34 255.535 836.313 258.188C836.304 260.001 836.295 261.815 836.287 263.629C836.199 275.499 835.733 287.241 834 299C827.913 296.704 825.698 290.527 823 285C816.336 269.242 818.251 251.476 821 235C821.376 232.521 821.751 230.042 822.125 227.562C822.415 225.708 822.706 223.854 823 222Z" fill="#CFD7E1"/>
<path id="back_triceps_2" d="M655 221C655.99 221.33 656.98 221.66 658 222C658.037 222.969 658.075 223.939 658.113 224.938C658.449 232.159 659.084 239.105 660.563 246.188C664.482 265.697 659.884 281.303 650 298C648.68 298 647.36 298 646 298C644.944 286.6 644.749 275.227 644.705 263.785C644.693 261.711 644.673 259.637 644.643 257.563C644.601 254.525 644.584 251.488 644.574 248.449C644.557 247.533 644.539 246.618 644.521 245.674C644.549 237.464 647.109 230.864 652.25 224.438C652.771 223.776 653.292 223.115 653.828 222.434C654.215 221.961 654.602 221.487 655 221Z" fill="#CFD7E0"/>
<path id="front_tibialis" d="M323 643C323.66 643 324.32 643 325 643C325.029 646.854 325.047 650.708 325.062 654.562C325.071 655.649 325.079 656.735 325.088 657.854C325.105 663.348 324.986 668.59 324 674C324.99 673.67 325.98 673.34 327 673C327.289 678.586 326.369 682.82 324.516 688.066C324.259 688.822 324.002 689.578 323.737 690.357C322.918 692.762 322.085 695.163 321.25 697.562C320.167 700.708 319.09 703.855 318.016 707.004C317.754 707.769 317.493 708.534 317.223 709.322C313.92 719.069 311.086 728.917 309 739C308.67 738.01 308.34 737.02 308 736C307.01 736.495 307.01 736.495 306 737C305.3 739.008 305.3 739.008 304.816 741.438C304.611 742.332 304.405 743.227 304.193 744.148C303.773 746.049 303.356 747.95 302.943 749.852C302.736 750.746 302.53 751.641 302.316 752.562C302.135 753.389 301.954 754.215 301.768 755.066C301.514 755.704 301.261 756.343 301 757C299.515 757.495 299.515 757.495 298 758C298.308 750.618 298.813 743.876 301.18 736.867C302.91 730.82 303.636 724.523 304.621 718.319C305.623 712.191 306.826 706.097 308 700C308.186 699.007 308.371 698.015 308.562 696.992C308.728 696.129 308.892 695.265 309.062 694.375C309.266 693.304 309.266 693.304 309.473 692.211C310 690 310 690 310.914 687.281C312.241 683.272 313.27 679.216 314.312 675.125C316.288 667.465 318.523 659.935 320.984 652.418C321.919 649.274 322.543 646.244 323 643Z" fill="#D0D9E1"/>
<path id="front_tibialis_2" d="M320 615C320.33 615 320.66 615 321 615C321.99 631.912 320.114 646.123 314.902 662.215C308.553 681.818 305.172 702 302.093 722.336C300.802 730.648 298.942 738.819 297 747C296.719 748.205 296.438 749.411 296.148 750.652C294.12 759.104 294.12 759.104 292 763C291.34 763 290.68 763 290 763C289.761 756.341 290.566 750.804 292.234 744.383C295.385 731.405 297.008 718.265 298.71 705.038C301.255 685.335 303.853 665.691 308.875 646.438C309.062 645.718 309.249 644.998 309.442 644.257C311.189 637.632 313.117 631.226 316 625C316.565 623.383 317.111 621.759 317.625 620.125C318.891 616.109 318.891 616.109 320 615Z" fill="#D0D9E2"/>
<path id="back_achilles" d="M693 687C695.813 687.062 695.813 687.062 699 688C701.663 693.063 702.821 698.089 703.813 703.688C703.973 704.563 704.133 705.438 704.298 706.339C704.88 709.557 705.441 712.778 706 716C706.117 716.674 706.235 717.348 706.356 718.043C707.156 722.639 707.946 727.237 708.726 731.836C708.987 733.375 709.25 734.914 709.513 736.453C712.068 751.409 714.425 766.412 714.125 781.625C714.116 782.545 714.107 783.466 714.098 784.414C714.075 786.609 714.039 788.805 714 791C713.01 791 712.02 791 711 791C710.34 788.69 709.68 786.38 709 784C707.68 785.32 706.36 786.64 705 788C703.295 786.295 703.851 784.066 703.824 781.734C703.557 767.821 702.46 754.775 699.441 741.194C698.761 737.814 698.376 734.426 698 731C698.99 730.505 698.99 730.505 700 730C699.004 720.239 697.104 710.53 694.313 701.125C692.912 696.261 692.752 692.045 693 687Z" fill="#D0D7E0"/>
<path id="front_tibialis_3" d="M216 615C216.99 615.33 217.98 615.66 219 616C220.011 618.521 220.816 620.922 221.559 623.523C221.788 624.292 222.017 625.06 222.253 625.852C222.995 628.356 223.718 630.865 224.437 633.375C224.938 635.095 225.439 636.816 225.94 638.536C229.137 649.607 232.122 660.622 234 672C234.165 672.963 234.331 673.926 234.501 674.918C236.449 686.354 238.087 697.741 238.937 709.312C240.057 724.484 242.357 739.914 246.148 754.66C246.903 757.62 247.189 759.97 247 763C244 762 244 762 242.906 759.855C241.903 756.695 241.169 753.56 240.5 750.312C240.243 749.07 239.987 747.827 239.723 746.547C239.484 745.376 239.246 744.206 239 743C238.813 742.139 238.626 741.278 238.434 740.391C237.116 734.206 236.312 727.989 235.562 721.711C235.068 717.99 235.068 717.99 234.041 714.397C233.046 710.496 232.54 706.638 232.095 702.641C230.623 689.618 227.292 677.535 223.375 665.062C222.473 662.145 221.576 659.227 220.684 656.307C220.136 654.515 219.581 652.725 219.018 650.937C217.016 644.469 215.862 638.306 215.902 631.504C215.906 630.534 215.909 629.564 215.912 628.564C215.92 627.574 215.929 626.583 215.937 625.562C215.942 624.545 215.947 623.527 215.951 622.479C215.963 619.986 215.979 617.493 216 615Z" fill="#D0D8E1"/>
<path id="back_rhomboids" d="M797 191C801.173 192.338 803.118 193.9 805.75 197.375C806.427 198.264 807.104 199.154 807.801 200.07C808.527 201.037 809.252 202.004 810 203C810.819 204.029 811.637 205.057 812.48 206.117C813.291 207.151 814.102 208.185 814.938 209.25C815.689 210.204 816.441 211.158 817.215 212.141C819.122 215.195 819.669 217.444 820 221C808.822 225.562 797.191 229.267 785 228C784.34 227.67 783.68 227.34 783 227C783.574 221.835 784.762 217.237 786.625 212.375C786.884 211.689 787.144 211.002 787.411 210.295C790.042 203.539 793.371 197.27 797 191Z" fill="#D1DAE2"/>
<path id="front_serratus" d="M319 314C320.751 317.779 321.23 320.673 321.16 324.824C321.149 325.936 321.138 327.048 321.127 328.193C321.106 329.346 321.084 330.499 321.062 331.688C320.954 338.766 320.947 345.681 321.758 352.719C322.133 356.251 322.222 359.764 322.25 363.312C322.271 363.989 322.291 364.665 322.312 365.361C322.347 369.763 321.788 372.557 319 376C317.098 377.18 317.098 377.18 315.062 377.875C314.393 378.12 313.724 378.365 313.035 378.617C310.642 379.067 309.245 378.941 307 378C303.164 366.491 306.099 350.924 307.312 339.125C307.489 337.335 307.489 337.335 307.669 335.508C310.058 314 310.058 314 319 314Z" fill="#CFD8E0"/>
<path id="back_rhomboids_2" d="M682 191C687.652 195.521 689.461 201.385 692 208C692.385 208.887 692.771 209.774 693.168 210.688C695.558 216.211 696.612 220.988 697 227C671.203 227.926 671.203 227.926 661 222C661.327 215.559 663.616 212.049 667.562 207.062C668.101 206.363 668.64 205.664 669.194 204.943C673.112 199.93 677.25 195.247 682 191Z" fill="#D0DAE1"/>
<path id="front_tibialis_4" d="M212 642C214 643 214 643 214.898 645.553C215.197 646.674 215.496 647.795 215.805 648.949C216.141 650.191 216.478 651.433 216.824 652.713C217.175 654.038 217.525 655.363 217.875 656.688C218.559 659.233 219.244 661.779 219.93 664.324C220.101 664.966 220.272 665.607 220.448 666.268C221.579 670.494 222.778 674.696 224.008 678.895C228.162 693.403 231.039 708.08 233.625 722.938C234.075 725.497 234.526 728.057 234.977 730.616C235.265 732.243 235.551 733.871 235.837 735.499C236.7 740.393 237.623 745.269 238.669 750.129C239.135 752.766 239.14 755.332 239 758C238.34 758 237.68 758 237 758C235.35 753.38 233.7 748.76 232 744C231.01 744.99 230.02 745.98 229 747C228.206 743.542 227.415 740.084 226.625 736.625C226.403 735.659 226.182 734.694 225.953 733.699C224.535 727.484 223.214 721.258 222 715C222.99 714.505 222.99 714.505 224 714C223.404 709.14 222.422 704.641 221.004 699.957C220.606 698.622 220.208 697.286 219.811 695.951C219.19 693.889 218.567 691.827 217.941 689.765C214.142 677.207 211.642 665.441 211.875 652.25C211.884 651.255 211.893 650.26 211.902 649.234C211.926 646.823 211.958 644.411 212 642Z" fill="#D0D8E1"/>
<path id="front_serratus_2" d="M218 314C221.799 314.687 223.345 316.175 225.852 319.137C228.97 324.196 229.554 329.84 230.125 335.625C230.251 336.888 230.251 336.888 230.38 338.177C231.082 346.135 231.182 354.078 231.188 362.062C231.188 363.294 231.189 364.525 231.19 365.793C231.135 374.596 231.135 374.596 230 378C224.327 377.615 221.177 377.177 217 373C215.757 370.514 215.867 368.84 215.875 366.062C215.872 365.187 215.87 364.312 215.867 363.41C215.974 360.661 216.193 357.992 216.473 355.258C217.245 347.128 217.359 338.972 217.562 330.812C217.606 329.176 217.649 327.54 217.693 325.904C217.799 321.936 217.901 317.968 218 314Z" fill="#CFD7E0"/>
<path id="front_deltoid" d="M211 174C211.99 174.33 212.98 174.66 214 175C212.643 189.922 205.374 202.364 194 212C189.026 215.808 183.867 219.711 178 222C177.01 221.67 176.02 221.34 175 221C174.023 211.718 179.269 203.871 184.68 196.793C192.129 187.826 200.665 179.578 211 174Z" fill="#CFD7E0"/>
<path id="front_deltoid_2" d="M325 175C335.88 176.557 346.556 187.431 353.145 195.688C354.841 198.087 356.454 200.501 358 203C358.532 203.839 359.065 204.678 359.613 205.543C362.306 210.315 363.342 215.531 363 221C360 222 360 222 357.617 221.066C344.423 213.83 331.985 202.823 327.051 188.184C326.807 187.277 326.564 186.371 326.312 185.438C326.061 184.529 325.81 183.62 325.551 182.684C325.008 180.04 324.898 177.69 325 175Z" fill="#D1DAE2"/>
<path id="front_abs_upper" d="M297.75 307.25C301.057 309.031 302.198 309.803 304 313C304.363 316.383 304.363 316.383 304.312 320.125C304.309 321.365 304.305 322.605 304.301 323.883C304 327 304 327 302 329C299.772 329.066 297.54 329.03 295.312 328.937C289.494 328.842 286.09 329.349 281 332C277.625 332.75 277.625 332.75 275 333C274 332 274 332 273.886 329.683C273.892 328.683 273.897 327.683 273.902 326.652C273.906 325.573 273.909 324.493 273.912 323.381C273.92 322.245 273.929 321.108 273.938 319.937C273.942 318.797 273.947 317.657 273.951 316.482C273.963 313.655 273.979 310.827 274 308C280.611 304.372 290.663 304.83 297.75 307.25Z" fill="#CED7E0"/>
<path id="front_abs_upper_2" d="M264 308C264.341 310.43 264.341 310.43 264.293 313.445C264.283 314.522 264.274 315.598 264.264 316.707C264.239 317.835 264.213 318.963 264.187 320.125C264.167 321.828 264.167 321.828 264.146 323.566C264.111 326.378 264.062 329.189 264 332C261.711 332.621 261.711 332.621 259 333C257.886 332.361 256.772 331.721 255.625 331.062C250.404 328.12 244.982 328.79 239.195 329.055C236 329 236 329 234 327C233.272 320.951 232.749 315.033 236 309.75C243.464 305.396 256.531 303.021 264 308Z" fill="#CFD7E1"/>
<path id="front_abs_upper_3" d="M284 273C291.91 275.829 299.17 279.178 303 287C303.293 290.551 303.293 290.551 303.187 294.312C303.16 295.567 303.133 296.821 303.105 298.113C303.071 299.066 303.036 300.019 303 301C302.046 300.844 301.092 300.688 300.109 300.527C294.661 299.747 289.171 299.653 283.676 299.482C282.86 299.448 282.044 299.414 281.203 299.379C280.467 299.354 279.732 299.329 278.974 299.303C277 299 277 299 274 297C271.977 290.012 271.664 280.566 275 274C278.038 272.481 280.716 272.475 284 273Z" fill="#D0D9E1"/>
<path id="front_abs_upper_4" d="M262 273C264.003 274.531 264.882 275.421 265.388 277.914C265.392 278.62 265.395 279.327 265.398 280.055C265.404 281.225 265.404 281.225 265.41 282.418C265.399 283.229 265.387 284.04 265.375 284.875C265.387 285.678 265.398 286.481 265.41 287.309C265.393 290.806 265.103 293.673 264.051 297.023C260.761 300.194 257.218 299.743 252.813 299.75C251.152 299.784 249.492 299.82 247.832 299.859C247.027 299.874 246.222 299.889 245.393 299.904C241.888 300.044 238.471 300.504 235 301C234.387 286.974 234.387 286.974 239.406 281.453C245.419 275.724 253.585 271.798 262 273Z" fill="#D0D9E1"/>
<path id="front_quads_7" d="M245 498C245.66 498 246.32 498 247 498C249.272 505.709 250.897 513.373 252.125 521.312C252.297 522.401 252.469 523.49 252.646 524.611C253.84 532.4 254.718 540.119 255 548C255.99 546.68 256.98 545.36 258 544C257.434 551.678 256.812 559.343 256 567C255.34 566.34 254.68 565.68 254 565C251.878 567.122 251.497 568.209 250.625 571C249.28 574.808 249.28 574.808 246.812 576.5C246.214 576.665 245.616 576.83 245 577C243 575 243 575 242.757 572.529C242.761 571.508 242.765 570.486 242.77 569.434C242.771 568.308 242.773 567.182 242.775 566.021C242.788 564.839 242.8 563.656 242.812 562.438C242.813 561.282 242.814 560.126 242.814 558.936C242.839 554.156 242.918 549.47 243.491 544.723C244.069 539.793 244.221 534.894 244.316 529.934C244.337 529.014 244.358 528.095 244.379 527.147C244.444 524.244 244.503 521.341 244.562 518.438C244.606 516.455 244.649 514.473 244.693 512.49C244.8 507.66 244.901 502.83 245 498Z" fill="#CED7DF"/>
<path id="back_forearms" d="M835 320C841.139 320.922 846.214 321.771 851 326C854.993 331.461 857.75 337.513 860.438 343.688C861.225 345.465 862.013 347.242 862.801 349.02C863.367 350.303 863.367 350.303 863.944 351.612C866.802 358.075 869.699 364.523 872.957 370.797C873.451 371.754 873.451 371.754 873.955 372.731C874.886 374.526 875.831 376.314 876.777 378.102C878 381 878 381 877 384C873.164 382.437 870.864 379.936 868 377C867.237 376.526 866.474 376.051 865.688 375.562C865.131 375.047 864.574 374.531 864 374C864.054 373.111 864.108 372.221 864.164 371.305C863.954 367.073 862.193 364.791 859.688 361.562C859.24 360.958 858.793 360.354 858.333 359.732C855.987 356.571 853.581 353.46 851.168 350.352C835 329.273 835 329.273 835 320Z" fill="#D0D8E2"/>
<path id="back_achilles_2" d="M782 687C783.675 687.286 785.344 687.618 787 688C787.217 693.165 786.55 697.104 784.938 702C782.29 710.437 780.304 719.003 778.375 727.625C778.086 728.91 777.797 730.195 777.5 731.52C773.62 748.658 773.62 748.658 770.875 766C770.757 766.971 770.757 766.971 770.637 767.962C769.94 773.957 769.56 779.962 769.246 785.988C769 789 769 789 768 792C767.34 792 766.68 792 766 792C765.084 789.253 764.872 787.619 764.867 784.789C764.866 783.955 764.865 783.121 764.863 782.262C764.867 781.392 764.871 780.521 764.875 779.625C764.871 778.794 764.867 777.962 764.863 777.105C764.884 763.275 766.863 750.005 769.312 736.438C769.633 734.645 769.953 732.853 770.273 731.061C771.039 726.78 771.816 722.502 772.596 718.224C772.953 716.259 773.304 714.294 773.655 712.329C774.152 709.55 774.665 706.774 775.188 704C775.317 703.268 775.447 702.537 775.581 701.783C776.554 696.827 778.301 690.699 782 687Z" fill="#CFD8E0"/>
<path id="back_forearms_2" d="M645 320C645.376 324.983 644.452 327.608 641.812 331.812C641.168 332.859 640.523 333.906 639.859 334.984C639.246 335.98 638.632 336.975 638 338C637.178 339.516 636.364 341.036 635.562 342.562C633.088 347.056 630.112 351.11 627.055 355.223C625.068 357.908 623.151 360.629 621.25 363.375C617.519 368.718 613.61 373.39 609 378C608.299 378.928 607.598 379.856 606.875 380.812C606.256 381.534 605.637 382.256 605 383C604.01 383 603.02 383 602 383C603.291 380.312 604.72 377.852 606.375 375.375C608.725 371.66 610.379 367.898 611.91 363.785C613.127 360.677 614.472 357.643 615.838 354.598C617.115 351.743 618.367 348.877 619.621 346.012C620.559 343.903 621.498 341.795 622.438 339.688C622.902 338.617 623.367 337.546 623.846 336.443C624.308 335.414 624.77 334.385 625.246 333.324C625.655 332.397 626.064 331.47 626.486 330.514C629.277 325.88 633.24 323.636 638.188 321.75C639.047 321.415 639.907 321.08 640.793 320.734C643 320 643 320 645 320Z" fill="#CED7E0"/>
<path id="front_quads_8" d="M291 497C291.66 497 292.32 497 293 497C292.984 498.897 292.984 498.897 292.968 500.833C292.932 505.583 292.909 510.334 292.89 515.085C292.88 517.13 292.867 519.175 292.849 521.22C292.765 531.374 292.692 541.216 294.542 551.239C295.282 555.7 295.292 560.113 295.25 564.625C295.258 565.495 295.265 566.365 295.273 567.262C295.271 568.096 295.268 568.93 295.266 569.789C295.263 570.529 295.261 571.268 295.259 572.03C295 574 295 574 293 577C291.098 576.699 291.098 576.699 289 576C285.625 569.115 284.481 561.477 283 554C282.34 555.98 281.68 557.96 281 560C280.67 560 280.34 560 280 560C279.805 553.945 279.805 553.945 280 552C280.66 551.34 281.32 550.68 282 550C282.222 547.693 282.338 545.375 282.406 543.059C282.794 534.349 284.276 525.997 286.011 517.467C286.51 515.015 286.992 512.56 287.473 510.104C287.783 508.539 288.094 506.974 288.406 505.41C288.551 504.678 288.696 503.946 288.845 503.192C289.883 498.117 289.883 498.117 291 497Z" fill="#CFD8E1"/>
<path id="back_forearms_3" d="M609 310C609.66 311.32 610.32 312.64 611 314C611.33 313.34 611.66 312.68 612 312C612.99 312 613.98 312 615 312C614.29 317.961 612.122 322.177 609 327.25C607.03 330.678 605.965 334.089 604.91 337.887C603.981 341.066 602.93 344.183 601.854 347.315C599.122 355.286 596.825 363.251 594.871 371.445C593.94 375.247 592.821 378.956 591.648 382.688C590.718 386.006 590.157 389.371 589.625 392.773C588.898 395.364 587.719 396.954 586 399C584.68 398.34 583.36 397.68 582 397C581.244 389.565 583.097 385.063 586.402 378.438C588.507 373.908 589.879 369.281 591.238 364.484C592 362 592 362 593 361C593.041 359.334 593.043 357.666 593 356C592.01 356 591.02 356 590 356C593.579 339.744 600.801 324.393 609 310Z" fill="#CCD6DF"/>
<path id="back_achilles_3" d="M723 692C724.32 692.33 725.64 692.66 727 693C726.984 694.241 726.984 694.241 726.968 695.507C726.927 699.255 726.901 703.002 726.875 706.75C726.858 708.052 726.842 709.354 726.824 710.695C726.815 712.571 726.815 712.571 726.805 714.484C726.789 716.213 726.789 716.213 726.773 717.976C726.999 720.986 727.646 722.386 729 725C729.135 727.382 729.135 727.382 728.977 729.984C728.925 730.919 728.873 731.854 728.82 732.816C728.756 733.784 728.691 734.753 728.625 735.75C728.568 736.734 728.512 737.717 728.453 738.73C728.312 741.154 728.161 743.577 728 746C727.67 746 727.34 746 727 746C726.67 743.36 726.34 740.72 726 738C723.23 740.77 723.461 743.525 723.184 747.254C723.122 747.988 723.061 748.721 722.998 749.477C722.802 751.838 722.62 754.2 722.438 756.562C722.311 758.096 722.184 759.629 722.057 761.162C721.214 771.433 720.564 781.711 720 792C719.01 792 718.02 792 717 792C716.975 787.662 716.957 783.325 716.945 778.987C716.94 777.517 716.933 776.047 716.925 774.577C716.879 766.766 717.004 759.058 717.753 751.275C718.064 747.151 718.164 743.037 718.246 738.902C718.263 738.094 718.279 737.286 718.297 736.454C718.363 733.105 718.425 729.756 718.477 726.406C718.669 714.51 719.443 703.434 723 692Z" fill="#CDD5DE"/>
<path id="back_achilles_4" d="M753 691C753.99 691 754.98 691 756 691C757.93 695.168 758.578 699.228 759.062 703.75C759.14 704.396 759.218 705.042 759.299 705.707C760.906 719.918 761.209 734.277 761.562 748.562C761.594 749.79 761.594 749.79 761.627 751.043C761.978 764.698 762.123 778.34 762 792C761.01 792 760.02 792 759 792C758.95 791.13 758.9 790.26 758.848 789.364C757.699 768.943 757.699 768.943 756 748.562C755.929 747.79 755.858 747.017 755.786 746.221C755.599 744.471 755.311 742.732 755 741C754.34 740.67 753.68 740.34 753 740C753 741.98 753 743.96 753 746C752.67 746 752.34 746 752 746C752.072 745.163 752.144 744.327 752.219 743.465C753.214 730.984 753.219 718.733 752.227 706.246C751.387 694.225 751.387 694.225 753 691Z" fill="#CED7DF"/>
<path id="back_forearms_4" d="M862 317C864.591 319.302 865.86 321.488 867.234 324.656C867.64 325.587 868.046 326.518 868.465 327.478C868.889 328.475 869.313 329.472 869.75 330.5C870.19 331.525 870.631 332.55 871.084 333.606C875.058 342.954 878.681 352.402 882 362C882.507 363.439 882.507 363.439 883.023 364.906C885.276 371.774 886.124 378.845 887 386C886.01 386 885.02 386 884 386C869.166 368.514 861.813 340.392 861 318C861.33 317.67 861.66 317.34 862 317Z" fill="#D0D7E1"/>
<path id="front_abs_upper_5" d="M264 250C265.943 251.943 265.306 255.292 265.375 257.875C265.424 259.131 265.473 260.386 265.523 261.68C265 265 265 265 262.863 266.891C259.77 268.089 257.11 268.546 253.812 268.875C248.16 269.619 243.948 271.146 239.023 273.977C237 275 237 275 234 275C233.592 268.603 234.246 262.281 238.512 257.199C246.351 250.1 253.653 249.22 264 250Z" fill="#D1DAE2"/>
<path id="front_abs_upper_6" d="M279.562 249.75C288.129 249.841 293.931 251.931 300 258C303.61 263.228 303.682 268.833 304 275C303.34 275.33 302.68 275.66 302 276C300.484 274.824 300.484 274.824 298.937 273.625C292.623 269.172 286.208 268.726 278.672 268.344C276 268 276 268 273 266C272.751 263.389 272.673 261.039 272.75 258.438C272.755 257.739 272.76 257.041 272.766 256.322C272.864 250.001 273.377 249.843 279.562 249.75Z" fill="#D0D9E2"/>
<path id="front_deltoid_3" d="M192 167C191.67 167.99 191.34 168.98 191 170C190.01 170 189.02 170 188 170C188 170.66 188 171.32 188 172C188.99 171.67 189.98 171.34 191 171C192.394 170.933 193.792 170.915 195.188 170.938C197.075 170.968 197.075 170.968 199 171C197.553 174.606 195.926 175.829 192.688 177.875C186.988 182.262 183.692 187.724 180.063 193.875C179.507 194.808 178.952 195.741 178.38 196.703C175.315 202.064 173.131 207.08 171.736 213.106C171.493 213.731 171.25 214.356 171 215C169.515 215.495 169.515 215.495 168 216C167.918 213.02 167.859 210.043 167.813 207.062C167.787 206.232 167.762 205.401 167.736 204.545C167.666 198.484 168.754 193.614 171 188C171.392 186.989 171.784 185.979 172.188 184.938C172.456 184.298 172.724 183.659 173 183C172.01 183.99 171.02 184.98 170 186C169.34 185.67 168.68 185.34 168 185C173.296 177.458 181.778 167 192 167Z" fill="#CED6DF"/>
<path id="Vector_3" d="M312 388C310.193 394.565 307.613 399.501 303.563 404.938C297.29 413.73 294.078 421.783 291.711 432.336C291.056 434.789 290.227 436.788 289 439C285.796 436.299 284.147 432.809 282.313 429.125C281.992 428.513 281.672 427.9 281.342 427.27C278.059 420.731 278.059 420.731 279 417C281.022 414.32 283.382 412.057 285.813 409.75C286.492 409.088 287.172 408.425 287.873 407.743C292.59 403.198 297.456 398.946 302.633 394.93C305.14 392.96 305.14 392.96 307.68 390.258C310 388 310 388 312 388Z" fill="#D2D9E3"/>
<path id="back_glutes_3" d="M786 361C792.239 363.639 795.196 369.08 798 375C799.294 380.269 799.11 385.596 799 391C798.34 391 797.68 391 797 391C796.196 389.989 795.391 388.979 794.562 387.937C786.1 377.937 775.311 375.324 763 373C763.325 369.999 763.872 369.109 766.215 367.113C767.113 366.519 768.012 365.925 768.938 365.312C769.833 364.71 770.729 364.109 771.652 363.488C776.42 360.466 780.428 360.424 786 361Z" fill="#CFD9E1"/>
<path id="back_glutes_4" d="M704 361C709.562 363.274 714.778 365.751 718 371C718 371.66 718 372.32 718 373C717.056 373.135 716.113 373.271 715.141 373.41C706.801 374.808 700.606 376.804 693.391 381.477C691 383 691 383 688 384C688 384.66 688 385.32 688 386C683.529 390 683.529 390 681 390C680.31 381.859 682.182 375.228 686 368C691.023 362.125 696.202 359.771 704 361Z" fill="#D0D8E1"/>
<path id="back_forearms_5" d="M618 316C618.33 316 618.66 316 619 316C620.058 334.492 614.683 355.787 605.289 371.723C603.404 375.052 601.866 378.538 600.309 382.031C599 384 599 384 596.848 384.781C595.933 384.89 595.933 384.89 595 385C594.37 377.688 596.048 372.386 598.66 365.57C599.836 362.438 600.79 359.345 601.687 356.125C605.822 342.343 612.109 329.106 618 316Z" fill="#CED8E0"/>
<path id="Vector_4" d="M226 387C226.66 387 227.32 387 228 387C229.305 388.363 229.305 388.363 230.875 390.312C237.027 397.556 244.348 403.708 251.5 409.938C252.117 410.483 252.735 411.028 253.371 411.59C254.733 412.769 256.143 413.892 257.562 415C259 417 259 417 258.844 420.129C257.868 424.607 256.183 427.985 253.938 431.938C253.56 432.621 253.183 433.305 252.795 434.01C251.873 435.679 250.938 437.34 250 439C249.34 438.67 248.68 438.34 248 438C247.198 435.275 246.488 432.569 245.812 429.812C242.6 417.586 237.476 407.358 229.699 397.305C226.929 393.547 226 391.765 226 387Z" fill="#D1D9E2"/>
<path id="front_deltoid_4" d="M349 168C356.669 170.868 363.012 174.718 367 182C366.34 182 365.68 182 365 182C365.361 183.03 365.722 184.06 366.094 185.121C369.598 195.675 370.624 204.919 370 216C366.593 213.278 365.397 209.544 363.812 205.625C359.362 195.1 354.505 184.824 345 178C342.942 176.383 340.969 174.728 339 173C339 172.34 339 171.68 339 171C341.018 171.098 343.036 171.195 345.055 171.293C345.697 171.196 346.339 171.1 347 171C347.66 170.01 348.32 169.02 349 168Z" fill="#D0D9E2"/>
<path id="back_forearms_6" d="M866 312C867.872 312.289 867.872 312.289 870 313C871.613 315.664 872.916 318.176 874.188 321C874.573 321.835 874.958 322.67 875.354 323.531C882.017 338.34 887.155 353.816 891.805 369.359C893.101 373.307 894.678 377.06 896.312 380.875C898.77 386.802 899.81 391.623 899 398C897.188 398.688 897.188 398.688 895 399C891.917 396.716 891.379 394.379 890.648 390.711C890.331 389.176 890.331 389.176 890.008 387.609C889.799 386.542 889.59 385.475 889.375 384.375C888.948 382.257 888.519 380.14 888.086 378.023C887.808 376.615 887.808 376.615 887.525 375.177C887.209 373.035 887.209 373.035 886 372C885.876 370.804 885.752 369.607 885.625 368.375C885.231 364.898 884.315 362.155 882.816 358.969C881.827 356.584 881.205 354.188 880.562 351.688C878.356 343.306 874.843 335.608 871.238 327.75C866 316.117 866 316.117 866 312Z" fill="#CED6E0"/>
<path id="front_adductors" d="M272 423C272.99 423 273.98 423 275 423C276.297 425.539 277.587 428.081 278.875 430.625C279.24 431.338 279.605 432.051 279.98 432.785C287.012 446.72 284.597 459.318 281 474C280.34 474 279.68 474 279 474C278.734 472.926 278.469 471.852 278.195 470.746C277.839 469.31 277.482 467.874 277.125 466.438C276.951 465.733 276.777 465.029 276.598 464.303C275.765 460.957 274.896 457.652 273.906 454.348C271.188 444.307 271.871 433.333 272 423Z" fill="#CFD9E1"/>
<path id="front_forearm_2" d="M371 340C373.416 340.384 374.707 340.702 376.445 342.471C376.882 343.092 377.319 343.712 377.77 344.352C378.266 345.039 378.763 345.726 379.275 346.434C380.036 347.518 380.036 347.518 380.812 348.625C384.368 353.646 387.957 358.185 392.442 362.415C394.027 364.027 395.254 365.681 396.5 367.562C398.713 370.828 401.31 373.102 404.352 375.586C406.58 377.498 408.328 379.593 410 382C410 382.66 410 383.32 410 384C410.66 384 411.32 384 412 384C413.727 385.863 413.727 385.863 415.625 388.312C416.257 389.113 416.888 389.914 417.539 390.738C419 393 419 393 419 396C415.233 395.451 413.733 393.992 411.312 391.125C410.711 390.426 410.109 389.728 409.488 389.008C408 387 408 387 407 384C406.377 383.692 405.755 383.384 405.113 383.066C401.919 381.455 400.694 378.76 398.855 375.777C397.023 373.654 397.023 373.654 393.664 373.688C388.54 372.726 387.078 370.177 384.188 366.062C383.244 364.782 382.3 363.502 381.355 362.223C380.578 361.159 379.801 360.096 379 359C378.34 358.34 377.68 357.68 377 357C376.858 356.229 376.716 355.458 376.57 354.664C375.738 350.775 373.514 348.238 371.18 345.086C370.79 344.398 370.401 343.709 370 343C370.33 342.01 370.66 341.02 371 340Z" fill="#D0D7E1"/>
<path id="front_adductors_2" d="M263 422C263.66 422 264.32 422 265 422C265.334 440.123 263.073 456.383 259 474C258.34 474 257.68 474 257 474C256.312 471.003 255.647 468.006 255 465C254.809 464.134 254.618 463.267 254.422 462.375C252.222 451.565 251.476 443.281 257.398 433.625C259.661 429.917 261.322 425.998 263 422Z" fill="#CED8E0"/>
<path id="front_forearm_3" d="M163 341C163.99 341 164.98 341 166 341C166.877 346.813 165.974 349.605 162.5 354.375C161.015 356.262 159.515 358.137 158 360C156.925 361.413 156.925 361.413 155.828 362.855C150.251 370.121 150.251 370.121 146 372C145.526 372.516 145.051 373.031 144.562 373.562C143 375 143 375 140.438 375.438C139.633 375.623 138.829 375.809 138 376C137.306 377.319 136.644 378.655 136 380C134.914 381.345 133.786 382.657 132.625 383.938C130.581 386.205 128.693 388.415 126.875 390.875C124.732 393.304 123 393.908 120 395C123.876 386.476 127.971 380.39 135.312 374.559C138.448 371.662 140.98 368.229 143.637 364.898C145.879 362.148 148.215 359.541 150.625 356.938C154.372 352.836 157.585 348.537 160.688 343.934C162 342 162 342 163 341Z" fill="#CCD6DF"/>
<path id="back_hamstrings_5" d="M763 512C763.66 512 764.32 512 765 512C765.145 518.63 765.287 525.261 765.427 531.891C765.475 534.138 765.524 536.385 765.573 538.632C765.813 549.622 766.045 560.612 766.094 571.605C766.1 572.346 766.107 573.086 766.113 573.848C766.118 578.647 765.676 583.248 765 588C764.34 588 763.68 588 763 588C759.523 580.291 758.806 573.862 758.813 565.438C758.813 564.404 758.813 563.37 758.813 562.304C758.873 553.721 759.329 545.185 759.938 536.625C760.024 535.401 760.111 534.177 760.2 532.916C760.865 524.27 760.865 524.27 762 522C762.226 520.296 762.409 518.587 762.563 516.875C762.688 515.51 762.688 515.51 762.816 514.117C762.877 513.419 762.938 512.72 763 512Z" fill="#CDD7DF"/>
<path id="back_hamstrings_6" d="M715 512C715.66 512 716.32 512 717 512C719.006 527.78 720.321 543.461 720.422 559.372C720.432 560.987 720.449 562.602 720.473 564.217C720.587 572.955 720.486 580.21 716 588C715.34 588 714.68 588 714 588C711.009 572.087 713.385 554.648 714 538.562C714.097 535.981 714.193 533.4 714.289 530.818C714.523 524.545 714.76 518.273 715 512Z" fill="#CFD9E1"/>
<path id="front_forearm_4" d="M155 342C154.406 344.996 153.56 346.909 151.688 349.312C151.151 350.003 150.615 350.694 150.062 351.406C149.382 352.262 148.701 353.118 148 354C147.567 354.547 147.134 355.093 146.688 355.656C140.869 362.993 134.982 370.27 129.027 377.496C127.049 379.94 125.146 382.43 123.25 384.938C120.795 388.13 118.331 390.678 115 393C115.936 386.925 118.939 382.247 122 377C122.517 376.108 123.034 375.216 123.566 374.297C129.052 365.255 143.666 342 155 342Z" fill="#CED6DF"/>
<path id="front_forearm_5" d="M383 343C392.705 344.37 400.187 354.711 406 362C409.577 366.841 412.806 371.902 416 377C416.374 377.586 416.748 378.172 417.133 378.775C423.113 388.187 423.113 388.187 422.676 391.332C422.341 392.158 422.341 392.158 422 393C421.154 392.01 420.309 391.02 419.438 390C417.209 387.397 414.957 384.817 412.688 382.25C406.237 374.89 400.145 367.223 394.062 359.559C392.564 357.699 391.039 355.861 389.5 354.035C388.675 353.054 387.85 352.073 387 351.062C386.237 350.167 385.474 349.271 384.688 348.348C383 346 383 346 383 343Z" fill="#D1D9E2"/>
<path id="Vector_5" d="M288 138C288.66 138 289.32 138 290 138C292.295 144.885 291.819 150.919 288.694 157.501C287.031 160.769 285.278 163.981 283.5 167.188C282.775 168.533 282.053 169.88 281.332 171.229C279.578 174.499 277.797 177.753 276 181C275.01 181 274.02 181 273 181C271.799 170.02 274.026 163.998 279.883 154.859C281.855 151.577 283.418 148.108 285 144.625C285.302 143.964 285.605 143.303 285.916 142.621C286.616 141.083 287.309 139.542 288 138Z" fill="#CDD8DE"/>
<path id="Vector_6" d="M256 0C267.55 0 279.1 0 291 0C290.34 0.99 289.68 1.98 289 3C290.32 5.31 291.64 7.62 293 10C290.75 10.375 290.75 10.375 288 10C286.647 8.0131 285.314 6.01255 284 4C281.372 3.0378 281.372 3.0378 279 3C279 5.31 279 7.62 279 10C275.25 11.125 275.25 11.125 273 10C270.116 9.92805 267.258 9.90708 264.375 9.9375C263.573 9.94201 262.771 9.94652 261.945 9.95117C259.964 9.96297 257.982 9.9809 256 10C256 6.7 256 3.4 256 0Z" fill="#060606"/>
<path id="Vector_7" d="M248 583C248.33 583 248.66 583 249 583C250.802 600.276 250.353 614.313 242.832 630.195C241.884 632.164 241.884 632.164 241 635C240.34 635 239.68 635 239 635C235.656 628.312 237.287 617.726 239.457 610.883C240.65 607.468 241.942 604.094 243.242 600.719C245.467 594.935 246.834 589.087 248 583Z" fill="#CCD3DF"/>
<path id="Vector_8" d="M198 235C198.66 235 199.32 235 200 235C200.796 236.707 201.586 238.415 202.375 240.125C202.816 241.076 203.257 242.028 203.711 243.008C205.964 248.238 207.252 252.545 207.195 258.273C207.189 259.427 207.182 260.581 207.176 261.77C207.159 262.959 207.142 264.149 207.125 265.375C207.116 266.588 207.107 267.801 207.098 269.051C207.074 272.034 207.041 275.017 207 278C206.01 278 205.02 278 204 278C204 277.34 204 276.68 204 276C203.01 276 202.02 276 201 276C201 277.65 201 279.3 201 281C199.254 278.381 198.613 276.962 198 274C199.485 273.505 199.485 273.505 201 273C200.463 270.135 199.822 267.418 198.969 264.625C197.506 258.811 197.786 252.955 197.875 247C197.884 245.844 197.893 244.687 197.902 243.496C197.926 240.664 197.959 237.832 198 235Z" fill="#D0D9E1"/>
<path id="Vector_9" d="M288 583C289.54 585.873 290.553 588.63 291.402 591.773C291.653 592.681 291.904 593.588 292.162 594.523C292.677 596.416 293.19 598.309 293.701 600.203C294.774 604.076 295.735 607.518 297.676 611.055C299.582 615.295 299.362 619.161 299.25 623.75C299.245 624.612 299.24 625.475 299.234 626.363C299.155 632.69 299.155 632.69 298 635C297.34 635 296.68 635 296 635C295.746 634.192 295.492 633.384 295.23 632.551C294.714 630.948 294.714 630.948 294.187 629.312C293.851 628.257 293.515 627.201 293.168 626.113C292.145 623.02 292.145 623.02 290.426 620.668C286.507 613.334 287.88 603.498 287.937 595.438C287.942 594.238 287.947 593.039 287.951 591.803C287.963 588.868 287.979 585.934 288 583Z" fill="#CDD6E0"/>
<path id="front_forearm_6" d="M367 313C376.461 316.268 384.311 326.656 389.227 335.109C390 337 390 337 390 340C385.24 339.384 381.54 337.429 377.375 335.188C376.707 334.844 376.04 334.5 375.352 334.146C368.736 330.62 368.736 330.62 367 327C366.707 323.547 366.707 323.547 366.812 319.75C366.84 318.487 366.867 317.223 366.895 315.922C366.929 314.958 366.964 313.993 367 313Z" fill="#D0D8E0"/>
<path id="front_traps" d="M235 150C235.33 150.99 235.66 151.98 236 153C238.64 153 241.28 153 244 153C242.696 157.635 239.978 160.603 236.781 164.062C234.841 166.117 234.841 166.117 232.688 169C228.645 172.009 224.873 171.631 220 171C216.875 170 216.875 170 215 169C217.84 165.085 220.625 162.692 224.75 160.188C225.735 159.583 226.72 158.978 227.734 158.355C228.856 157.685 228.856 157.685 230 157C229.34 156.01 228.68 155.02 228 154C230.31 152.68 232.62 151.36 235 150Z" fill="#CDD7DE"/>
<path id="Vector_10" d="M248 137C248.66 137 249.32 137 250 137C250.173 137.501 250.345 138.003 250.523 138.52C253.852 147.481 258.513 155.786 263.032 164.188C265.104 168.067 265.103 170.667 265.062 175.125C265.053 176.406 265.044 177.688 265.035 179.008C265.024 179.995 265.012 180.983 265 182C263.515 181.505 263.515 181.505 262 181C260.676 178.332 260.676 178.332 259.312 174.812C257.48 170.163 255.455 166.004 252.721 161.82C247.383 153.569 247.098 146.646 248 137Z" fill="#CED8DF"/>
<path id="Vector_11" d="M302 579.688C302.866 579.671 303.732 579.654 304.625 579.637C307 580 307 580 308.805 581.309C310.486 583.688 310.239 585.661 309.793 588.461C308.064 593.998 304.911 599.014 302 604C301.01 604 300.02 604 299 604C298.352 602.251 297.706 600.501 297.062 598.75C296.703 597.775 296.343 596.801 295.973 595.797C294.316 591.034 293.622 587.098 294 582C297.218 579.854 298.268 579.704 302 579.688Z" fill="#D0DAE1"/>
<path id="Vector_12" d="M339 234C339.66 234 340.32 234 341 234C341.344 248.875 340.639 263.368 334 277C332.515 277.495 332.515 277.495 331 278C330.124 262.163 330.642 249.257 338 235C338.33 234.67 338.66 234.34 339 234Z" fill="#CFD9E1"/>
<path id="front_forearm_7" d="M171 313C171.776 324.784 171.776 324.784 169.125 328.938C164.828 331.774 160.469 334.444 156 337C155.154 337.554 154.309 338.109 153.438 338.68C151 340 151 340 147 340C148.461 335.749 150.602 332.572 153.312 329C154.072 327.989 154.831 326.979 155.613 325.938C157.926 323.091 160.37 320.552 163 318C163.866 317.072 164.733 316.144 165.625 315.188C168 313 168 313 171 313Z" fill="#CFD7E0"/>
<path id="Vector_13" d="M238 579C239.69 579.959 241.361 580.955 243 582C242.405 596.781 242.405 596.781 239 603C237.68 603 236.36 603 235 603C233.818 600.799 232.655 598.591 231.5 596.375C231.166 595.758 230.832 595.14 230.488 594.504C228.422 590.498 227.464 587.5 228 583C230.808 578.896 233.16 578.309 238 579Z" fill="#CED9E0"/>
<path id="front_obliques" d="M690 318C690.99 318 691.98 318 693 318C700.795 337.785 700.795 337.785 700 346C697.932 349.28 696.229 350.847 693 353C692.01 353 691.02 353 690 353C690 341.45 690 329.9 690 318Z" fill="#CDD7DF"/>
<path id="front_traps_2" d="M295 153C300.699 152.583 303.678 153.514 308.438 156.625C308.996 156.987 309.554 157.35 310.13 157.723C311.766 158.796 313.383 159.898 315 161C315.864 161.581 316.727 162.163 317.617 162.762C321.628 165.595 321.628 165.595 323 167C323 167.99 323 168.98 323 170C313.068 172.418 313.068 172.418 309.125 170.875C308.424 170.256 307.723 169.637 307 169C306.216 168.464 305.433 167.928 304.625 167.375C300.912 164.015 297.7 160.225 295 156C295 155.01 295 154.02 295 153Z" fill="#CED7E0"/>
<path id="front_obliques_2" d="M787 319C787.99 319 788.98 319 790 319C790 329.89 790 340.78 790 352C784 351 784 351 781.625 347.875C778.744 341.883 779.85 337.076 781.812 330.938C783.279 326.779 784.86 322.853 787 319Z" fill="#CED7DF"/>
<path id="Vector_14" d="M261 143C266.28 143 271.56 143 277 143C276.379 151.231 273.81 158.688 270 166C269.01 165.67 268.02 165.34 267 165C265.783 162.432 264.768 159.975 263.812 157.312C263.404 156.25 263.404 156.25 262.986 155.166C261.309 150.613 261 148.179 261 143Z" fill="#D0D8E1"/>
<path id="front_tibialis_5" d="M322 676C322.33 676.66 322.66 677.32 323 678C323.66 678 324.32 678 325 678C328.267 687.066 319.922 702.155 316.819 710.827C314.916 716.179 313.27 721.462 312 727C311.01 727 310.02 727 309 727C309 728.65 309 730.3 309 732C308.34 732 307.68 732 307 732C307.642 725.672 308.937 719.707 310.562 713.562C310.819 712.583 311.076 711.603 311.34 710.594C314.461 698.929 318.205 687.46 322 676Z" fill="#DBE1E9"/>
<path id="back_triceps_3" d="M638 236C638.33 236 638.66 236 639 236C639.297 241.439 638.739 245.395 636.863 250.488C635.512 254.42 634.609 258.454 633.648 262.496C633 265 633 265 632 267C631.795 268.337 631.634 269.681 631.5 271.027C631.417 271.819 631.335 272.612 631.25 273.428C631.167 274.256 631.085 275.084 631 275.938C630.836 277.572 630.67 279.206 630.5 280.84C630.428 281.566 630.356 282.291 630.281 283.039C630 285 630 285 629 288C628.34 288 627.68 288 627 288C627 279.09 627 270.18 627 261C626.34 261 625.68 261 625 261C625.33 259.02 625.66 257.04 626 255C627.32 255 628.64 255 630 255C630.17 254.371 630.34 253.742 630.516 253.094C634.311 239.689 634.311 239.689 638 236Z" fill="#CAD4DC"/>
<path id="Vector_15" d="M217 577C219.741 580.56 221.938 584.3 224.062 588.25C224.414 588.88 224.765 589.511 225.127 590.16C228.326 596.099 230.429 602.141 230 609C226.679 608.381 224.518 607.193 221.812 605.188C221.118 604.686 220.423 604.185 219.707 603.668C217.225 601.243 217.049 599.025 216.886 595.618C216.892 594.759 216.897 593.9 216.902 593.016C216.906 592.081 216.909 591.146 216.912 590.184C216.92 589.216 216.929 588.247 216.938 587.25C216.942 586.266 216.947 585.283 216.951 584.27C216.963 581.846 216.979 579.423 217 577Z" fill="#CFD9E1"/>
<path id="back_triceps_4" d="M842 236C842.66 236 843.32 236 844 236C852.885 253.138 854.35 267.823 854 287C853.01 287 852.02 287 851 287C850.89 285.875 850.781 284.749 850.668 283.59C849.314 270.246 847.551 257.308 842.77 244.684C841.909 241.683 841.868 239.107 842 236Z" fill="#CAD3DC"/>
<path id="Vector_16" d="M319 578C319.66 578 320.32 578 321 578C321.225 599.002 321.225 599.002 316.812 604.25C313.777 606.884 311.093 608 307 608C308.16 597.145 313.452 587.28 319 578Z" fill="#CFD8E0"/>
<path id="Vector_17" d="M638.062 298.313C640 299 640 299 641 301C641.564 305.091 641.895 307.59 639.648 311.129C636.152 315.187 632.295 318.804 628 322C627.34 322 626.68 322 626 322C625.314 314.282 627.793 307.246 632.125 300.875C635.132 297.868 635.132 297.868 638.062 298.313Z" fill="#D0D9E0"/>
<path id="Vector_18" d="M842 298C846.705 299.344 849.589 301.808 852 306C853.954 311.309 855.195 316.326 855 322C850.762 320.617 848.335 318.689 845.25 315.5C844.471 314.706 843.693 313.912 842.891 313.094C840.195 310.108 839.844 308.435 839.812 304.5C839.798 303.706 839.784 302.912 839.77 302.094C840 300 840 300 842 298Z" fill="#D1DAE2"/>
<path id="front_obliques_3" d="M209 283C211.867 284.285 213.976 285.571 216 288C216 288.66 216 289.32 216 290C216.577 290.268 217.155 290.536 217.75 290.812C220.149 292.079 222.026 293.125 224 295C224.391 297.699 224.391 297.699 224.25 300.688C224.214 301.681 224.178 302.675 224.141 303.699C224.071 304.838 224.071 304.838 224 306C219.25 305.22 216.104 303.733 213 300C209.929 294.415 208.448 289.347 209 283Z" fill="#CFDAE1"/>
<path id="front_obliques_4" d="M329 283C329.558 292.493 329.558 292.493 326 297C325.551 297.589 325.103 298.178 324.641 298.785C321.781 302.374 319.593 304.784 315 306C313.44 304.44 313.718 302.911 313.625 300.75C313.68 297.233 313.764 296.302 316 293.438C316.99 292.633 317.98 291.829 319 291C320.405 289.571 321.8 288.133 323.188 286.688C326.752 283 326.752 283 329 283Z" fill="#D0DAE2"/>
<path id="Vector_19" d="M349 273C351.745 276.372 354.311 279.819 356.812 283.375C359.708 287.38 362.689 290.9 366.258 294.305C368.241 296.235 370.095 298.248 371.937 300.312C372.524 300.969 373.111 301.625 373.715 302.301C375 304 375 304 375 306C365.416 303.005 355.052 293.774 350.441 285.051C347.482 277.381 347.482 277.381 349 273Z" fill="#CFD8E1"/>
<path id="back_triceps_5" d="M638 261C638.66 261 639.32 261 640 261C641.181 267.483 641.113 273.862 641.062 280.438C641.058 281.551 641.053 282.664 641.049 283.811C641.037 286.54 641.021 289.27 641 292C639.02 292.99 639.02 292.99 637 294C635.034 292.382 634.091 291.472 633.602 288.934C633.825 265.175 633.825 265.175 638 261Z" fill="#D0D8E1"/>
<path id="back_triceps_6" d="M840 261C840.99 261 841.98 261 843 261C846.06 270.793 846.716 280.776 846 291C845.34 291.99 844.68 292.98 844 294C842.68 293.67 841.36 293.34 840 293C840 282.44 840 271.88 840 261Z" fill="#CFD7E0"/>
<path id="Vector_20" d="M805 448C805.66 448 806.32 448 807 448C807.77 455.657 808.107 463.246 808.125 470.938C808.13 471.742 808.134 472.546 808.139 473.374C808.128 477.695 807.86 481.746 807 486C806.34 486 805.68 486 805 486C804.795 484.868 804.59 483.736 804.379 482.57C804.107 481.089 803.835 479.607 803.562 478.125C803.428 477.379 803.293 476.632 803.154 475.863C802.455 471.815 802.455 471.815 801 468C801.461 451.539 801.461 451.539 805 448Z" fill="#CCD2DE"/>
<path id="Vector_21" d="M188 273C188.33 273 188.66 273 189 273C189.525 279.165 188.481 283.819 185 289C179.098 295.24 172.355 301.531 165 306C164.34 306 163.68 306 163 306C164.638 301.92 167.564 299.11 170.562 296C177.093 289.082 184.016 281.729 188 273Z" fill="#CFD9E0"/>
<path id="Vector_22" d="M752 110C755.925 111.599 758.487 113.574 761 117C761.466 120.651 761.154 124.159 760.812 127.812C760.742 128.792 760.672 129.771 760.6 130.779C760.423 133.189 760.223 135.594 760 138C754.741 133.05 752.324 125.565 751.68 118.477C751.686 115.633 751.77 112.834 752 110Z" fill="#D0D8E0"/>
<path id="back_forearms_7" d="M606 316C607.32 316.66 608.64 317.32 610 318C609.674 318.606 609.348 319.212 609.012 319.836C605.925 325.755 603.69 331.544 602 338C601.34 338 600.68 338 600 338C599.897 339.011 599.794 340.021 599.688 341.062C598.963 345.212 597.777 348.214 596 352C595.34 352 594.68 352 594 352C592.346 345.436 594.003 341.226 596.625 335.125C596.969 334.278 597.313 333.431 597.668 332.559C600.057 326.803 602.863 321.382 606 316Z" fill="#D8DCE6"/>
<path id="Vector_23" d="M125 346C127.514 353.543 121.16 364.145 118 371C116.081 374.715 114.078 378.372 112 382C111.34 381.67 110.68 381.34 110 381C110.357 373.628 111.948 365.811 117.57 360.523C119.467 358.502 119.832 356.672 120.5 354C121.393 350.43 122.16 348.399 125 346Z" fill="#E1E7F0"/>
<path id="Vector_24" d="M727 110C727.33 110 727.66 110 728 110C728.574 118.85 727.647 126.828 724 135C722.515 135.99 722.515 135.99 721 137C718.756 134.756 719.674 129.76 719.625 126.75C719.588 125.89 719.55 125.03 719.512 124.145C719.449 119.6 719.464 117.667 722.399 114.016C723.257 113.35 724.116 112.685 725 112C725.66 111.34 726.32 110.68 727 110Z" fill="#D1D8E2"/>
<path id="front_obliques_5" d="M211 267C216.116 268.655 220.177 271.514 223.375 275.875C224.276 278.938 224.122 281.831 224 285C219.028 284.849 216.736 282.144 213.453 278.789C210.488 275.138 210.915 271.502 211 267Z" fill="#D2DBE3"/>
<path id="front_obliques_6" d="M212 239C219.151 239.405 224.627 241.825 231 245C230.523 249.529 230.523 249.529 228.316 251.516C224.729 252.266 222.972 250.66 219.938 248.75C218.895 248.105 217.852 247.461 216.777 246.797C214.843 245.545 212.917 244.278 211 243C211.33 241.68 211.66 240.36 212 239Z" fill="#D1DBE3"/>
<path id="front_obliques_7" d="M327 254C326.533 258.529 325.107 260.318 321.688 263.25C320.518 264.279 320.518 264.279 319.324 265.328C317.112 266.92 315.66 267.586 313 268C312.946 266.209 312.907 264.417 312.875 262.625C312.852 261.627 312.829 260.63 312.805 259.602C313 257 313 257 315 255C319.395 253.425 322.48 252.63 327 254Z" fill="#D2DBE3"/>
<path id="front_obliques_8" d="M327 267C326.752 273.934 324.766 277.949 320 283C317 285 317 285 314 285C313.685 279.747 314.033 276.403 317 272C320.193 269.132 322.618 267 327 267Z" fill="#D1DBE3"/>
<path id="Vector_25" d="M673 449C673.66 449 674.32 449 675 449C678.889 458.582 678.407 466.562 676.625 476.562C676.436 477.636 676.436 477.636 676.244 478.731C675.9 480.502 675.458 482.254 675 484C674.01 484.495 674.01 484.495 673 485C673 473.12 673 461.24 673 449Z" fill="#CCD4DF"/>
<path id="front_obliques_9" d="M212 253C221.938 253.842 221.938 253.842 225 257C225.419 260.371 225.285 263.621 225 267C219.245 266.224 215.678 263.403 212 259C211.5 255.562 211.5 255.562 212 253Z" fill="#D2DAE2"/>
<path id="front_obliques_10" d="M326 239C325.902 241.23 325.902 241.23 325 244C322.844 245.681 320.916 246.986 318.562 248.312C317.964 248.672 317.365 249.031 316.748 249.4C312.326 252 312.326 252 310 252C308.235 248.912 308 247.767 308 244C309.727 243.35 311.457 242.705 313.188 242.062C314.15 241.703 315.113 241.343 316.105 240.973C319.395 239.867 322.517 239 326 239Z" fill="#D3DBE4"/>
<path id="Vector_26" d="M198 0C202.29 0 206.58 0 211 0C215 7.75 215 7.75 215 10C213.68 10 212.36 10 211 10C210.34 8.68 209.68 7.36 209 6C206.03 6 203.06 6 200 6C199.34 7.32 198.68 8.64 198 10C196.68 9.67 195.36 9.34 194 9C195.32 6.03 196.64 3.06 198 0Z" fill="#35373D"/>
<path id="back_achilles_5" d="M704 742C704.33 742 704.66 742 705 742C708.864 761.825 708.864 761.825 708 769C707.67 769.33 707.34 769.66 707 770C706.765 772.183 706.586 774.372 706.438 776.562C706.312 778.359 706.312 778.359 706.184 780.191C706.123 781.118 706.062 782.045 706 783C705.67 783 705.34 783 705 783C704.951 781.817 704.902 780.633 704.852 779.414C704.506 771.874 704.118 764.622 702.418 757.246C701.408 751.816 700.89 746.665 704 742Z" fill="#D6DCE5"/>
<path id="back_achilles_6" d="M753 740C753.99 740.33 754.98 740.66 756 741C755.67 759.81 755.34 778.62 755 798C754.67 798 754.34 798 754 798C752.806 756.76 752.806 756.76 753 740Z" fill="#E6EAF4"/>
<path id="back_achilles_7" d="M708 763C708.33 763 708.66 763 709 763C709.116 766.416 709.187 769.832 709.25 773.25C709.284 774.218 709.317 775.186 709.352 776.184C709.451 783.402 709.451 783.402 706.984 786.672C706.002 787.329 706.002 787.329 705 788C704 787 704 787 703.886 784.867C703.892 783.951 703.897 783.034 703.902 782.09C703.906 781.1 703.909 780.111 703.912 779.092C703.92 778.051 703.929 777.01 703.938 775.938C703.942 774.893 703.947 773.848 703.951 772.771C703.963 770.181 703.979 767.59 704 765C704.33 765 704.66 765 705 765C705.33 766.65 705.66 768.3 706 770C706.66 767.69 707.32 765.38 708 763Z" fill="#CBCEDA"/>
<path id="Vector_27" d="M246 163C249 164 249 164 250.188 165.75C251 168 251 168 251 173C247.37 173 243.74 173 240 173C241.193 168.226 242.796 166.614 246 163Z" fill="#D0D9E1"/>
<path id="front_forearm_8" d="M391 372C394.754 372.263 396.529 372.54 399.266 375.215C399.92 376.113 400.575 377.012 401.25 377.938C401.915 378.833 402.58 379.729 403.266 380.652C403.838 381.427 404.41 382.202 405 383C405.66 383.66 406.32 384.32 407 385C407 387 407 389 407 391C403.158 387.264 399.637 383.349 396.188 379.25C395.685 378.661 395.183 378.072 394.666 377.465C391 373.125 391 373.125 391 372Z" fill="#D6D9E3"/>
<path id="Vector_28" d="M290 163C293.354 164.388 295.113 165.886 297 169C297 169.99 297 170.98 297 172C293.785 173.607 290.564 173.057 287 173C287.61 169.442 288.578 166.317 290 163Z" fill="#D1DAE0"/>
<path id="Vector_29" d="M659 0C663.95 0 668.9 0 674 0C673.01 1.485 673.01 1.485 672 3C669.617 3.29297 669.617 3.29297 666.875 3.1875C665.965 3.16043 665.055 3.13336 664.117 3.10547C663.419 3.07066 662.72 3.03586 662 3C662 5.31 662 7.62 662 10C661.01 10 660.02 10 659 10C659 6.7 659 3.4 659 0Z" fill="#414448"/>
<path id="Vector_30" d="M291 -1.1839e-05C290.01 1.48499 290.01 1.48499 289 2.99999C290.32 5.30999 291.64 7.61999 293 9.99999C291.35 9.99999 289.7 9.99999 288 9.99999C287.443 8.86561 286.886 7.73124 286.312 6.56249C284.578 3.4453 284.578 3.4453 281.25 2.06249C280.507 2.04186 279.765 2.02124 279 1.99999C279 1.66999 279 1.33999 279 0.999988C283.041 0.366041 286.907 -0.124056 291 -1.1839e-05Z" fill="#2D2F33"/>
<path id="back_achilles_8" d="M706 758C706.66 758.33 707.32 758.66 708 759C708.027 760.646 708.046 762.292 708.062 763.938C708.074 764.854 708.086 765.771 708.098 766.715C708 769 708 769 707 770C706.765 772.183 706.586 774.372 706.438 776.562C706.354 777.76 706.27 778.958 706.184 780.191C706.123 781.118 706.062 782.045 706 783C705.67 783 705.34 783 705 783C704.67 775.08 704.34 767.16 704 759C704.66 758.67 705.32 758.34 706 758Z" fill="#E4E9F3"/>
<path id="back_achilles_9" d="M729 707C729.33 707 729.66 707 730 707C730.027 709.062 730.046 711.125 730.062 713.188C730.074 714.336 730.086 715.485 730.098 716.668C730.012 719.593 729.678 722.163 729 725C728.01 724.34 727.02 723.68 726 723C725.602 720.32 725.602 720.32 725.625 717.125C725.617 716.076 725.61 715.026 725.602 713.945C726.037 710.724 726.782 709.331 729 707Z" fill="#E8ECF3"/>
<path id="Vector_31" d="M320 0C321.32 0 322.64 0 324 0C323.498 4.39367 322.128 6.87182 319 10C316.25 10.8125 316.25 10.8125 314 11C314 9.68 314 8.36 314 7C314.619 6.95875 315.238 6.9175 315.875 6.875C316.576 6.58625 317.277 6.2975 318 6C319.305 3.00384 319.305 3.00384 320 0Z" fill="#36373B"/>
<path id="Vector_32" d="M252 578C252.33 578 252.66 578 253 578C253.157 588.046 252.672 597.981 252 608C251.67 608 251.34 608 251 608C250.248 600.309 249.863 592.728 250 585C250.66 585 251.32 585 252 585C252 582.69 252 580.38 252 578Z" fill="#EEF1F7"/>
<path id="back_triceps_7" d="M631 241C631.99 241.66 632.98 242.32 634 243C632.422 252.719 632.422 252.719 628 256C627.67 256 627.34 256 627 256C627.568 250.545 628.946 246.089 631 241Z" fill="#D6DCE3"/>
<path id="front_tibialis_6" d="M228 730C228.66 730.33 229.32 730.66 230 731C231.158 734.473 231.069 737.361 231 741C230.01 741.33 229.02 741.66 228 742C227.805 740.376 227.619 738.751 227.438 737.125C227.333 736.22 227.229 735.315 227.121 734.383C227 732 227 732 228 730Z" fill="#DADFE6"/>
<path id="front_tibialis_7" d="M225 717C225.66 717 226.32 717 227 717C228.429 725.571 228.429 725.571 226 729C223.17 725.004 224.238 721.573 225 717Z" fill="#DDE2EA"/>
<path id="back_triceps_8" d="M626 259C628 261 628 261 628.25 264.438C628 268 628 268 626 271C624.833 267.499 624.866 264.673 625 261C625.33 260.34 625.66 259.68 626 259Z" fill="#EAEFF5"/>
<path id="back_forearms_8" d="M596 346C597.125 349.75 597.125 349.75 596 352C595.34 352 594.68 352 594 352C593.67 350.35 593.34 348.7 593 347C593.99 346.67 594.98 346.34 596 346Z" fill="#E5EAF1"/>
</g>
<defs>
<clipPath id="clip0_13_4">
<rect width="1024" height="878" fill="white"/>
</clipPath>
</defs>
</svg>
